# Blender 4.5.4 LTS
# www.blender.org
mtllib Fence.mtl
o Cube
v 300.000000 1.500000 -0.200000
v 300.000000 -1.500000 -0.200000
v 300.000000 1.500000 0.200000
v 300.000000 -1.500000 0.200000
v -300.000000 1.500000 -0.200000
v -300.000000 -1.500000 -0.200000
v -300.000000 1.500000 0.200000
v -300.000000 -1.500000 0.200000
vn -0.0000 1.0000 -0.0000
vn -0.0000 -0.0000 1.0000
vn -1.0000 -0.0000 -0.0000
vn -0.0000 -1.0000 -0.0000
vn 1.0000 -0.0000 -0.0000
vn -0.0000 -0.0000 -1.0000
vt 1.000019 0.492993
vt 0.000019 0.493659
vt 0.000019 0.492993
vt 1.000019 0.503660
vt 0.000019 0.498660
vt 1.000019 0.498660
vt 0.000019 0.492326
vt 0.005019 0.491659
vt 0.005019 0.492326
vt 1.000019 0.492326
vt 0.000019 0.492993
vt 0.010019 0.491659
vt 0.010019 0.492326
vt 1.000019 0.498659
vt 0.000019 0.493659
vt 1.000019 0.493659
vt 1.000019 0.493659
vt 0.000019 0.503660
vt 0.000019 0.491659
vt 1.000019 0.492993
vt 0.000019 0.498659
s 0
usemtl Material
f 5/1/1 3/2/1 1/3/1
f 3/4/2 8/5/2 4/6/2
f 7/7/3 6/8/3 8/9/3
f 2/10/4 8/11/4 6/7/4
f 1/9/5 4/12/5 2/13/5
f 5/14/6 2/15/6 6/16/6
f 5/1/1 7/17/1 3/2/1
f 3/4/2 7/18/2 8/5/2
f 7/7/3 5/19/3 6/8/3
f 2/10/4 4/20/4 8/11/4
f 1/9/5 3/8/5 4/12/5
f 5/14/6 1/21/6 2/15/6
