# Blender 4.5.4 LTS
# www.blender.org
mtllib Gate.mtl
o Cube
v -0.124130 -0.249672 3.131206
v -0.124130 0.203533 3.258123
v -0.157599 -0.320609 -2.942681
v -0.157599 0.274470 -3.025248
v 0.117949 -0.249672 3.131206
v 0.117949 0.203533 3.258123
v 0.151418 -0.320609 -2.942681
v 0.151418 0.274470 -3.025248
v 0.156255 -0.508244 2.382821
v -0.000000 -0.508244 2.292607
v 0.000000 -1.008147 2.240019
v 0.000000 0.867333 2.285384
v 0.201798 -1.008147 2.356527
v 0.201798 0.836235 2.397665
v 0.201798 -1.008147 2.589543
v 0.201798 0.774038 2.622227
v -0.000000 -1.008147 2.706052
v -0.000000 0.742940 2.734509
v -0.201798 -1.008147 2.589543
v -0.201798 0.774038 2.622227
v -0.201798 -1.008147 2.356527
v -0.201798 0.836235 2.397665
v 0.156255 -0.508244 2.563249
v -0.000000 -0.508244 2.653464
v -0.156255 -0.508244 2.563249
v -0.156255 -0.508244 2.382821
v -0.234670 0.425629 2.337548
v -0.234670 0.425629 2.608522
v 0.000000 0.425629 2.202061
v -0.000000 0.425629 2.744009
v 0.234670 0.425629 2.608522
v 0.234670 0.425629 2.337548
v 0.099442 -0.508244 1.152852
v 0.189656 -0.508244 0.996596
v 0.242244 -1.008147 0.996596
v 0.196879 0.867333 0.996596
v 0.125736 -1.008147 1.198395
v 0.084598 0.836235 1.198395
v -0.107280 -1.008147 1.198395
v -0.139964 0.774038 1.198395
v -0.223789 -1.008147 0.996596
v -0.252246 0.742940 0.996596
v -0.107280 -1.008147 0.794798
v -0.139964 0.774038 0.794798
v 0.125736 -1.008147 0.794798
v 0.084598 0.836235 0.794798
v -0.080986 -0.508244 1.152852
v -0.171201 -0.508244 0.996596
v -0.080986 -0.508244 0.840341
v 0.099442 -0.508244 0.840341
v 0.144715 0.425629 0.761926
v -0.126259 0.425629 0.761926
v 0.280202 0.425629 0.996596
v -0.261746 0.425629 0.996596
v -0.126259 0.425629 1.231267
v 0.144715 0.425629 1.231267
v 0.156255 -0.508244 -1.059126
v -0.000000 -0.508244 -1.149341
v -0.000000 -1.008147 -1.201929
v -0.000000 0.867333 -1.156564
v 0.201798 -1.008147 -1.085421
v 0.201798 0.836235 -1.044283
v 0.201798 -1.008147 -0.852404
v 0.201798 0.774038 -0.819721
v -0.000000 -1.008147 -0.735896
v -0.000000 0.742940 -0.707439
v -0.201798 -1.008147 -0.852404
v -0.201798 0.774038 -0.819721
v -0.201798 -1.008147 -1.085421
v -0.201798 0.836235 -1.044283
v 0.156255 -0.508244 -0.878698
v -0.000000 -0.508244 -0.788484
v -0.156256 -0.508244 -0.878698
v -0.156256 -0.508244 -1.059126
v -0.234671 0.425629 -1.104399
v -0.234671 0.425629 -0.833425
v -0.000000 0.425629 -1.239887
v -0.000000 0.425629 -0.697939
v 0.234670 0.425629 -0.833425
v 0.234670 0.425629 -1.104400
v -0.156255 -0.508244 -2.312691
v -0.000000 -0.508244 -2.222476
v -0.000000 -1.008147 -2.169888
v -0.000000 0.867333 -2.215253
v -0.201798 -1.008147 -2.286397
v -0.201798 0.836235 -2.327535
v -0.201798 -1.008147 -2.519413
v -0.201798 0.774038 -2.552097
v 0.000000 -1.008147 -2.635921
v 0.000000 0.742940 -2.664378
v 0.201798 -1.008147 -2.519413
v 0.201798 0.774038 -2.552097
v 0.201798 -1.008147 -2.286397
v 0.201798 0.836235 -2.327535
v -0.156255 -0.508244 -2.493119
v 0.000000 -0.508244 -2.583333
v 0.156255 -0.508244 -2.493119
v 0.156255 -0.508244 -2.312691
v 0.234670 0.425629 -2.267418
v 0.234670 0.425629 -2.538392
v -0.000000 0.425629 -2.131930
v 0.000000 0.425629 -2.673879
v -0.234670 0.425629 -2.538392
v -0.234670 0.425629 -2.267418
v -0.095131 -0.202012 -2.045226
v -0.095131 0.155873 -2.045226
v 0.088950 -0.202012 -2.045226
v 0.088950 0.155873 -2.045226
v -0.094121 -0.200048 1.958798
v 0.087940 0.153909 1.958798
v -0.094121 0.153909 1.958798
v 0.087940 -0.200048 1.958798
v -0.104926 -0.221054 2.841985
v 0.098745 0.174915 2.841985
v -0.104926 0.174915 2.841985
v 0.098745 -0.221054 2.841985
v -0.094645 0.154928 -0.119286
v 0.088465 -0.201067 -0.119286
v -0.094645 -0.201067 -0.119286
v 0.088465 0.154928 -0.119286
v -0.094496 -0.242446 0.472428
v 0.088315 0.112969 0.472428
v -0.094496 0.112969 0.472428
v 0.088315 -0.242446 0.472428
vn -0.9976 -0.0000 0.0694
vn -0.0000 -0.1374 -0.9905
vn 0.9978 -0.0000 -0.0663
vn -0.0000 -0.2697 0.9630
vn -0.0000 -0.9951 -0.0985
vn -0.0000 0.9976 -0.0686
vn 0.4982 -0.0837 0.8630
vn 0.9959 0.0907 -0.0000
vn 0.4932 0.1645 -0.8542
vn 0.9965 -0.0837 -0.0000
vn 0.4979 0.0907 0.8625
vn 0.9956 0.0939 -0.0000
vn -0.9965 -0.0837 -0.0000
vn -0.4979 0.0907 0.8625
vn 0.4998 0.0259 0.8657
vn -0.4982 -0.0837 -0.8630
vn -0.9959 0.0907 -0.0000
vn -0.4998 0.0259 0.8657
vn -0.0000 0.9637 0.2669
vn -0.4979 0.0907 -0.8625
vn -0.9956 0.0939 -0.0000
vn -0.4982 -0.0837 0.8630
vn 0.4979 0.0907 -0.8625
vn -0.4932 0.1645 -0.8542
vn -0.0000 -1.0000 -0.0000
vn 0.4982 -0.0837 -0.8630
vn -0.8630 -0.0837 0.4982
vn -0.0000 0.0907 0.9959
vn 0.8542 0.1646 0.4932
vn -0.0000 -0.0837 0.9965
vn -0.8625 0.0907 0.4979
vn -0.0000 0.0939 0.9956
vn -0.0000 -0.0837 -0.9965
vn -0.8625 0.0907 -0.4979
vn -0.8657 0.0259 0.4998
vn 0.8630 -0.0837 -0.4982
vn -0.0000 0.0907 -0.9959
vn -0.8657 0.0259 -0.4998
vn -0.2669 0.9637 -0.0000
vn 0.8625 0.0907 -0.4979
vn -0.0000 0.0939 -0.9956
vn -0.8630 -0.0837 -0.4982
vn 0.8625 0.0907 0.4979
vn 0.8542 0.1646 -0.4932
vn 0.8630 -0.0837 0.4982
vn -0.4932 0.1645 0.8542
vn -0.4998 0.0259 -0.8657
vn 0.4998 0.0259 -0.8657
vn -0.0000 0.9637 -0.2669
vn 0.4932 0.1646 0.8542
vn -0.0000 0.9928 0.1201
vn -0.0000 -0.9914 0.1310
vn 0.9976 -0.0000 0.0694
vn -1.0000 -0.0000 0.0003
vn -0.9999 -0.0000 -0.0122
vn -0.0000 0.9996 -0.0275
vn -0.0000 -0.9996 0.0285
vn 1.0000 -0.0000 0.0003
vn -0.9978 -0.0000 -0.0663
vn -0.0000 0.9997 -0.0238
vn -0.0000 -0.9997 -0.0238
vn 0.9999 -0.0000 -0.0122
vn -0.0000 -1.0000 0.0005
vn -0.0000 1.0000 0.0005
vn -0.0000 -0.9976 -0.0698
vn -0.0000 0.9975 0.0707
vn -0.9979 0.0090 0.0647
vn 0.9988 0.0132 -0.0470
vn 0.4987 0.1607 -0.8518
vn 0.9968 0.0767 0.0212
vn 0.4848 0.0113 0.8745
vn -0.4848 0.0113 0.8745
vn -0.9968 0.0767 0.0212
vn -0.4987 0.1607 -0.8518
vn 0.8518 0.1607 0.4987
vn -0.0212 0.0767 0.9968
vn -0.8745 0.0113 0.4848
vn -0.8745 0.0113 -0.4848
vn -0.0212 0.0767 -0.9968
vn 0.8518 0.1607 -0.4987
vn -0.4987 0.1607 0.8518
vn -0.9968 0.0767 -0.0212
vn -0.4848 0.0113 -0.8745
vn 0.4848 0.0113 -0.8745
vn 0.9968 0.0767 -0.0212
vn 0.4987 0.1607 0.8518
vn 0.9979 0.0090 0.0647
vn -0.9988 0.0132 -0.0470
vt 0.625000 0.210797
vt 0.375000 0.250000
vt 0.375000 0.210797
vt 0.625000 0.250000
vt 0.375000 0.500000
vt 0.625000 0.743300
vt 0.375000 0.750000
vt 0.375000 0.743300
vt 0.625000 0.750000
vt 0.375000 1.000000
vt 0.125000 0.750000
vt 0.125000 0.743300
vt 0.875000 0.743300
vt 0.666667 0.908737
vt 0.500000 0.672680
vt 0.666667 0.672680
vt 0.833333 0.672680
vt 0.666667 0.500000
vt 0.833333 0.500000
vt 1.000000 0.908737
vt 0.833333 1.000000
vt 0.833333 0.908737
vt 0.500000 0.500000
vt 0.666667 1.000000
vt 0.333333 0.908737
vt 0.166667 0.672680
vt 0.333333 0.672680
vt 0.333333 0.500000
vt 0.500000 1.000000
vt 0.500000 0.908737
vt 0.166667 0.908737
vt -0.000000 0.672680
vt 0.166667 0.500000
vt 0.250000 0.490000
vt 0.042154 0.130000
vt 0.457846 0.130000
vt -0.000000 0.500000
vt 0.333333 1.000000
vt 1.000000 0.672680
vt 1.000000 0.500000
vt 0.166667 1.000000
vt -0.000000 0.908737
vt 0.957846 0.370000
vt 0.750000 0.010000
vt 0.542154 0.370000
vt 0.625000 0.500000
vt 0.875000 0.539203
vt 0.625000 0.539203
vt 0.125000 0.539203
vt 0.125000 0.500000
vt 0.375000 0.539203
vt 0.625000 0.130367
vt 0.375000 0.130367
vt 0.625000 0.006700
vt 0.375000 0.043583
vt 0.375000 0.006700
vt 0.875000 0.644344
vt 0.625000 0.706417
vt 0.625000 0.644344
vt 0.375000 0.644344
vt 0.125000 0.706417
vt 0.125000 0.644344
vt 0.375000 0.706417
vt 0.375000 0.000000
vt 0.875000 0.706417
vt 0.625000 0.619633
vt 0.375000 0.619633
vt 0.125000 0.619633
vt 0.625000 0.105656
vt 0.375000 0.105656
vt 0.625000 1.000000
vt 0.875000 0.750000
vt 1.000000 1.000000
vt 0.457846 0.370000
vt 0.042154 0.370000
vt 0.250000 0.010000
vt -0.000000 1.000000
vt 0.750000 0.490000
vt 0.957846 0.130000
vt 0.542154 0.130000
vt 0.875000 0.500000
vt 0.625000 0.043583
vt 0.625000 0.000000
vt 0.875000 0.619633
s 0
usemtl Wood
f 106/1/1 3/2/1 105/3/1
f 4/4/2 7/5/2 3/2/2
f 114/6/3 5/7/3 116/8/3
f 6/9/4 1/10/4 5/7/4
f 116/8/5 1/11/5 113/12/5
f 115/13/6 6/9/6 114/6/6
f 31/14/7 24/15/7 23/16/7
f 9/17/8 15/18/8 13/19/8
f 29/20/9 14/21/9 32/22/9
f 32/22/10 23/16/10 9/17/10
f 23/16/11 17/23/11 15/18/11
f 32/22/12 16/24/12 31/14/12
f 28/25/13 26/26/13 25/27/13
f 24/15/14 19/28/14 17/23/14
f 31/14/15 18/29/15 30/30/15
f 27/31/16 10/32/16 26/26/16
f 19/28/17 26/26/17 21/33/17
f 18/29/18 28/25/18 30/30/18
f 12/34/19 20/35/19 16/36/19
f 21/33/20 10/32/20 11/37/20
f 20/38/21 27/31/21 28/25/21
f 30/30/22 25/27/22 24/15/22
f 10/39/23 13/19/23 11/40/23
f 22/41/24 29/42/24 27/31/24
f 13/43/25 17/44/25 21/45/25
f 29/20/26 9/17/26 10/39/26
f 55/14/27 48/15/27 47/16/27
f 33/17/28 39/18/28 37/19/28
f 53/20/29 38/21/29 56/22/29
f 56/22/30 47/16/30 33/17/30
f 47/16/31 41/23/31 39/18/31
f 56/22/32 40/24/32 55/14/32
f 52/25/33 50/26/33 49/27/33
f 48/15/34 43/28/34 41/23/34
f 55/14/35 42/29/35 54/30/35
f 51/31/36 34/32/36 50/26/36
f 43/28/37 50/26/37 45/33/37
f 42/29/38 52/25/38 54/30/38
f 36/34/39 44/35/39 40/36/39
f 45/33/40 34/32/40 35/37/40
f 44/38/41 51/31/41 52/25/41
f 54/30/42 49/27/42 48/15/42
f 34/39/43 37/19/43 35/40/43
f 46/41/44 53/42/44 51/31/44
f 37/43/25 41/44/25 45/45/25
f 53/20/45 33/17/45 34/39/45
f 71/16/7 78/30/7 72/15/7
f 57/17/8 63/18/8 61/19/8
f 77/20/9 62/21/9 80/22/9
f 80/22/10 71/16/10 57/17/10
f 71/16/11 65/23/11 63/18/11
f 80/22/12 64/24/12 79/14/12
f 76/25/13 74/26/13 73/27/13
f 72/15/14 67/28/14 65/23/14
f 79/14/15 66/29/15 78/30/15
f 75/31/16 58/32/16 74/26/16
f 73/27/17 69/33/17 67/28/17
f 66/29/18 76/25/18 78/30/18
f 60/34/19 68/35/19 64/36/19
f 74/26/20 59/37/20 69/33/20
f 68/38/21 75/31/21 76/25/21
f 78/30/22 73/27/22 72/15/22
f 58/39/23 61/19/23 59/40/23
f 70/41/24 77/42/24 75/31/24
f 61/43/25 65/44/25 69/45/25
f 77/20/26 57/17/26 58/39/26
f 95/16/16 102/30/16 96/15/16
f 85/19/17 95/16/17 87/18/17
f 101/20/46 86/21/46 104/22/46
f 104/22/13 95/16/13 81/17/13
f 95/16/20 89/23/20 87/18/20
f 104/22/21 88/24/21 103/14/21
f 100/25/10 98/26/10 97/27/10
f 96/15/23 91/28/23 89/23/23
f 103/14/47 90/29/47 102/30/47
f 99/31/7 82/32/7 98/26/7
f 91/28/8 98/26/8 93/33/8
f 90/29/48 100/25/48 102/30/48
f 84/34/49 92/35/49 88/36/49
f 98/26/11 83/37/11 93/33/11
f 92/38/12 99/31/12 100/25/12
f 102/30/26 97/27/26 96/15/26
f 82/39/14 85/19/14 83/40/14
f 94/41/50 101/42/50 99/31/50
f 85/43/25 89/44/25 93/45/25
f 101/20/22 81/17/22 82/39/22
f 8/46/51 106/47/51 108/48/51
f 7/5/52 105/49/52 3/50/52
f 7/5/53 108/48/53 107/51/53
f 117/52/54 105/3/54 119/53/54
f 115/54/55 109/55/55 113/56/55
f 123/57/56 110/58/56 122/59/56
f 124/60/57 109/61/57 121/62/57
f 122/59/58 112/63/58 124/60/58
f 1/64/59 115/54/59 113/56/59
f 111/65/60 114/6/60 110/58/60
f 112/63/61 113/12/61 109/61/61
f 112/63/62 114/6/62 116/8/62
f 107/51/58 120/66/58 118/67/58
f 107/51/63 119/68/63 105/49/63
f 106/47/64 120/66/64 108/48/64
f 123/69/54 119/53/54 121/70/54
f 109/55/54 123/69/54 121/70/54
f 118/67/58 122/59/58 124/60/58
f 119/68/65 124/60/65 121/62/65
f 120/66/66 123/57/66 122/59/66
f 106/1/67 4/4/67 3/2/67
f 4/4/2 8/46/2 7/5/2
f 114/6/68 6/9/68 5/7/68
f 6/9/4 2/71/4 1/10/4
f 116/8/5 5/7/5 1/11/5
f 115/13/6 2/72/6 6/9/6
f 31/14/7 30/30/7 24/15/7
f 9/17/8 23/16/8 15/18/8
f 29/20/69 12/73/69 14/21/69
f 32/22/10 31/14/10 23/16/10
f 23/16/11 24/15/11 17/23/11
f 32/22/70 14/21/70 16/24/70
f 28/25/13 27/31/13 26/26/13
f 24/15/14 25/27/14 19/28/14
f 31/14/71 16/24/71 18/29/71
f 27/31/16 29/42/16 10/32/16
f 19/28/17 25/27/17 26/26/17
f 18/29/72 20/38/72 28/25/72
f 16/36/19 14/74/19 12/34/19
f 12/34/19 22/75/19 20/35/19
f 20/35/19 18/76/19 16/36/19
f 21/33/20 26/26/20 10/32/20
f 20/38/73 22/41/73 27/31/73
f 30/30/22 28/25/22 25/27/22
f 10/39/23 9/17/23 13/19/23
f 22/41/74 12/77/74 29/42/74
f 21/45/25 11/78/25 13/43/25
f 13/43/25 15/79/25 17/44/25
f 17/44/25 19/80/25 21/45/25
f 29/20/26 32/22/26 9/17/26
f 55/14/27 54/30/27 48/15/27
f 33/17/28 47/16/28 39/18/28
f 53/20/75 36/73/75 38/21/75
f 56/22/30 55/14/30 47/16/30
f 47/16/31 48/15/31 41/23/31
f 56/22/76 38/21/76 40/24/76
f 52/25/33 51/31/33 50/26/33
f 48/15/34 49/27/34 43/28/34
f 55/14/77 40/24/77 42/29/77
f 51/31/36 53/42/36 34/32/36
f 43/28/37 49/27/37 50/26/37
f 42/29/78 44/38/78 52/25/78
f 40/36/39 38/74/39 36/34/39
f 36/34/39 46/75/39 44/35/39
f 44/35/39 42/76/39 40/36/39
f 45/33/40 50/26/40 34/32/40
f 44/38/79 46/41/79 51/31/79
f 54/30/42 52/25/42 49/27/42
f 34/39/43 33/17/43 37/19/43
f 46/41/80 36/77/80 53/42/80
f 45/45/25 35/78/25 37/43/25
f 37/43/25 39/79/25 41/44/25
f 41/44/25 43/80/25 45/45/25
f 53/20/45 56/22/45 33/17/45
f 71/16/7 79/14/7 78/30/7
f 57/17/8 71/16/8 63/18/8
f 77/20/69 60/73/69 62/21/69
f 80/22/10 79/14/10 71/16/10
f 71/16/11 72/15/11 65/23/11
f 80/22/70 62/21/70 64/24/70
f 76/25/13 75/31/13 74/26/13
f 72/15/14 73/27/14 67/28/14
f 79/14/71 64/24/71 66/29/71
f 75/31/16 77/42/16 58/32/16
f 73/27/17 74/26/17 69/33/17
f 66/29/72 68/38/72 76/25/72
f 64/36/19 62/74/19 60/34/19
f 60/34/19 70/75/19 68/35/19
f 68/35/19 66/76/19 64/36/19
f 74/26/20 58/32/20 59/37/20
f 68/38/73 70/41/73 75/31/73
f 78/30/22 76/25/22 73/27/22
f 58/39/23 57/17/23 61/19/23
f 70/41/74 60/77/74 77/42/74
f 69/45/25 59/78/25 61/43/25
f 61/43/25 63/79/25 65/44/25
f 65/44/25 67/80/25 69/45/25
f 77/20/26 80/22/26 57/17/26
f 95/16/16 103/14/16 102/30/16
f 85/19/17 81/17/17 95/16/17
f 101/20/81 84/73/81 86/21/81
f 104/22/13 103/14/13 95/16/13
f 95/16/20 96/15/20 89/23/20
f 104/22/82 86/21/82 88/24/82
f 100/25/10 99/31/10 98/26/10
f 96/15/23 97/27/23 91/28/23
f 103/14/83 88/24/83 90/29/83
f 99/31/7 101/42/7 82/32/7
f 91/28/8 97/27/8 98/26/8
f 90/29/84 92/38/84 100/25/84
f 88/36/49 86/74/49 84/34/49
f 84/34/49 94/75/49 92/35/49
f 92/35/49 90/76/49 88/36/49
f 98/26/11 82/32/11 83/37/11
f 92/38/85 94/41/85 99/31/85
f 102/30/26 100/25/26 97/27/26
f 82/39/14 81/17/14 85/19/14
f 94/41/86 84/77/86 101/42/86
f 93/45/25 83/78/25 85/43/25
f 85/43/25 87/79/25 89/44/25
f 89/44/25 91/80/25 93/45/25
f 101/20/22 104/22/22 81/17/22
f 8/46/51 4/81/51 106/47/51
f 7/5/52 107/51/52 105/49/52
f 7/5/87 8/46/87 108/48/87
f 117/52/54 106/1/54 105/3/54
f 115/54/55 111/82/55 109/55/55
f 123/57/56 111/65/56 110/58/56
f 124/60/57 112/63/57 109/61/57
f 122/59/58 110/58/58 112/63/58
f 1/64/88 2/83/88 115/54/88
f 111/65/60 115/13/60 114/6/60
f 112/63/61 116/8/61 113/12/61
f 112/63/62 110/58/62 114/6/62
f 107/51/58 108/48/58 120/66/58
f 107/51/63 118/67/63 119/68/63
f 106/47/64 117/84/64 120/66/64
f 123/69/54 117/52/54 119/53/54
f 109/55/54 111/82/54 123/69/54
f 118/67/58 120/66/58 122/59/58
f 119/68/65 118/67/65 124/60/65
f 120/66/66 117/84/66 123/57/66
