# Blender 4.5.4 LTS
# www.blender.org
mtllib Overpass.mtl
o Cube.001
v -6.000000 -2.000000 0.200000
v -6.000000 2.000000 0.200000
v -6.000000 -2.000000 -0.200000
v -6.000000 2.000000 -0.200000
v 6.000000 -2.000000 0.200000
v 6.000000 2.000000 0.200000
v 6.000000 -2.000000 -0.200000
v 6.000000 2.000000 -0.200000
v -2.000000 0.000000 -0.200000
v -2.000000 -2.000000 -0.200000
v 2.000000 0.000000 -0.200000
v 2.000000 -2.000000 -0.200000
v 2.000000 0.000000 0.200000
v -2.000000 0.000000 0.200000
v -2.000000 -2.000000 0.200000
v 2.000000 -2.000000 0.200000
vn -1.0000 -0.0000 -0.0000
vn -0.0000 -0.0000 -1.0000
vn 1.0000 -0.0000 -0.0000
vn -0.0000 -0.0000 1.0000
vn -0.0000 -1.0000 -0.0000
vn -0.0000 1.0000 -0.0000
vt 0.000000 0.733333
vt 0.333333 0.700000
vt 0.333333 0.733333
vt 0.000000 0.000000
vt 1.000000 0.000000
vt 0.333333 0.166667
vt 0.333333 0.733333
vt 0.666667 0.700000
vt 0.666667 0.733333
vt 0.000000 0.333333
vt 1.000000 0.333333
vt 0.333333 0.500000
vt 0.666667 0.700000
vt 1.000000 0.733333
vt 0.666667 0.733333
vt 0.333333 0.766667
vt 0.000000 0.733333
vt 0.000000 0.700000
vt 1.000000 0.666667
vt 1.000000 0.700000
vt 0.833333 0.766667
vt 0.833333 0.733333
vt 1.000000 0.766667
vt 0.666667 0.766667
vt 0.000000 0.700000
vt 0.333333 0.333333
vt 0.666667 0.333333
vt 0.666667 0.166667
vt 0.333333 0.666667
vt 0.000000 0.666667
vt 0.666667 0.666667
vt 0.666667 0.500000
vt 0.000000 0.766667
vt 0.666667 0.766667
vt 1.000000 0.733333
s 0
usemtl Material.002
f 2/1/1 3/2/1 1/3/1
f 4/4/2 8/5/2 9/6/2
f 8/7/3 5/8/3 7/9/3
f 6/10/4 2/11/4 13/12/4
f 5/13/5 12/14/5 7/15/5
f 3/16/5 15/17/5 1/3/5
f 4/18/6 6/19/6 8/20/6
f 10/21/3 14/9/3 15/22/3
f 11/22/1 16/23/1 13/21/1
f 11/16/5 14/9/5 9/24/5
f 2/1/1 4/25/1 3/2/1
f 10/26/2 3/10/2 4/4/2
f 8/5/2 7/11/2 12/27/2
f 8/5/2 12/27/2 11/28/2
f 9/6/2 10/26/2 4/4/2
f 8/5/2 11/28/2 9/6/2
f 8/7/3 6/2/3 5/8/3
f 16/29/4 5/30/4 6/10/4
f 2/11/4 1/19/4 15/31/4
f 2/11/4 15/31/4 14/32/4
f 13/12/4 16/29/4 6/10/4
f 2/11/4 14/32/4 13/12/4
f 5/13/5 16/20/5 12/14/5
f 3/16/5 10/33/5 15/17/5
f 4/18/6 2/30/6 6/19/6
f 10/21/3 9/34/3 14/9/3
f 11/22/1 12/35/1 16/23/1
f 11/16/5 13/3/5 14/9/5
