# Blender 4.5.4 LTS
# www.blender.org
mtllib Speakers.mtl
o polySurface11_lambert2_0
v 0.405086 0.534266 0.124561
v 0.397326 0.609930 0.109133
v 0.457914 0.590028 0.176260
v 0.397326 0.609930 0.109133
v 0.419069 0.670607 0.152361
v 0.457914 0.590028 0.176260
v 0.419069 0.670607 0.152361
v 0.453942 0.670607 0.221694
v 0.457914 0.590028 0.176260
v 0.453942 0.670607 0.221694
v 0.475685 0.609930 0.264922
v 0.457914 0.590028 0.176260
v 0.475685 0.609930 0.264922
v 0.467925 0.534266 0.249494
v 0.457914 0.590028 0.176260
v 0.467925 0.534266 0.249494
v 0.436505 0.500593 0.187028
v 0.457914 0.590028 0.176260
v 0.436505 0.500593 0.187028
v 0.405086 0.534266 0.124561
v 0.457914 0.590028 0.176260
v 0.350207 1.284127 0.144328
v 0.341649 1.367567 0.127314
v 0.435727 1.345620 0.187629
v 0.341649 1.367567 0.127314
v 0.365627 1.434482 0.174986
v 0.435727 1.345620 0.187629
v 0.365627 1.434482 0.174986
v 0.404085 1.434482 0.251446
v 0.435727 1.345620 0.187629
v 0.404085 1.434482 0.251446
v 0.428063 1.367567 0.299117
v 0.435727 1.345620 0.187629
v 0.428063 1.367567 0.299117
v 0.419506 1.284127 0.282104
v 0.435727 1.345620 0.187629
v 0.419506 1.284127 0.282104
v 0.384856 1.246992 0.213216
v 0.435727 1.345620 0.187629
v 0.384856 1.246992 0.213216
v 0.350207 1.284127 0.144328
v 0.435727 1.345620 0.187629
v 0.235279 0.478504 0.131701
v 0.219759 0.629831 0.100845
v 0.310155 0.624498 0.081530
v 0.323596 0.493446 0.108252
v 0.219759 0.629831 0.100845
v 0.263245 0.751185 0.187302
v 0.347815 0.729594 0.156403
v 0.310155 0.624498 0.081530
v 0.263245 0.751185 0.187302
v 0.332992 0.751185 0.325967
v 0.408217 0.729594 0.276491
v 0.347815 0.729594 0.156403
v 0.332992 0.751185 0.325967
v 0.376478 0.629831 0.412424
v 0.445878 0.624498 0.351364
v 0.408217 0.729594 0.276491
v 0.376478 0.629831 0.412424
v 0.360958 0.478504 0.381568
v 0.432437 0.493446 0.324642
v 0.445878 0.624498 0.351364
v 0.360958 0.478504 0.381568
v 0.298118 0.411157 0.256634
v 0.378016 0.435122 0.216447
v 0.432437 0.493446 0.324642
v 0.298118 0.411157 0.256634
v 0.235279 0.478504 0.131701
v 0.323596 0.493446 0.108252
v 0.378016 0.435122 0.216447
v 0.323596 0.493446 0.108252
v 0.310155 0.624498 0.081530
v 0.397326 0.609930 0.109133
v 0.405086 0.534266 0.124561
v 0.310155 0.624498 0.081530
v 0.347815 0.729594 0.156403
v 0.419069 0.670607 0.152361
v 0.397326 0.609930 0.109133
v 0.347815 0.729594 0.156403
v 0.408217 0.729594 0.276491
v 0.453942 0.670607 0.221694
v 0.419069 0.670607 0.152361
v 0.408217 0.729594 0.276491
v 0.445878 0.624498 0.351364
v 0.475685 0.609930 0.264922
v 0.453942 0.670607 0.221694
v 0.445878 0.624498 0.351364
v 0.432437 0.493446 0.324642
v 0.467925 0.534266 0.249494
v 0.475685 0.609930 0.264922
v 0.432437 0.493446 0.324642
v 0.378016 0.435122 0.216447
v 0.436505 0.500593 0.187028
v 0.467925 0.534266 0.249494
v 0.378016 0.435122 0.216447
v 0.323596 0.493446 0.108252
v 0.405086 0.534266 0.124561
v 0.436505 0.500593 0.187028
v 0.299699 1.316190 0.159806
v 0.315431 1.275787 0.191083
v 0.377592 1.153686 0.070758
v 0.337461 1.256757 -0.009028
v 0.296281 1.369108 0.153009
v 0.299699 1.316190 0.159806
v 0.337461 1.256757 -0.009028
v 0.328739 1.391750 -0.026368
v 0.306260 1.417739 0.172849
v 0.296281 1.369108 0.153009
v 0.328739 1.391750 -0.026368
v 0.354197 1.515808 0.024245
v 0.326470 1.446643 0.213028
v 0.306260 1.417739 0.172849
v 0.354197 1.515808 0.024245
v 0.405751 1.589541 0.126742
v 0.350493 1.446643 0.260789
v 0.326470 1.446643 0.213028
v 0.405751 1.589541 0.126742
v 0.467034 1.589541 0.248580
v 0.370702 1.417739 0.300968
v 0.350493 1.446643 0.260789
v 0.467034 1.589541 0.248580
v 0.518588 1.515808 0.351076
v 0.380682 1.369108 0.320809
v 0.370702 1.417739 0.300968
v 0.518588 1.515808 0.351076
v 0.544046 1.391750 0.401689
v 0.377263 1.316190 0.314012
v 0.380682 1.369108 0.320809
v 0.544046 1.391750 0.401689
v 0.535324 1.256757 0.384350
v 0.361531 1.275787 0.282735
v 0.377263 1.316190 0.314012
v 0.535324 1.256757 0.384350
v 0.495193 1.153686 0.304563
v 0.338481 1.260724 0.236909
v 0.361531 1.275787 0.282735
v 0.495193 1.153686 0.304563
v 0.436392 1.115263 0.187661
v 0.315431 1.275787 0.191083
v 0.338481 1.260724 0.236909
v 0.436392 1.115263 0.187661
v 0.377592 1.153686 0.070758
v 0.337461 1.256757 -0.009028
v 0.377592 1.153686 0.070758
v 0.338930 1.113964 0.063747
v 0.291550 1.235643 -0.030451
v 0.328739 1.391750 -0.026368
v 0.337461 1.256757 -0.009028
v 0.291550 1.235643 -0.030451
v 0.281253 1.395010 -0.050922
v 0.354197 1.515808 0.024245
v 0.328739 1.391750 -0.026368
v 0.281253 1.395010 -0.050922
v 0.311309 1.541466 0.008833
v 0.405751 1.589541 0.126742
v 0.354197 1.515808 0.024245
v 0.311309 1.541466 0.008833
v 0.372175 1.628512 0.129843
v 0.467034 1.589541 0.248580
v 0.405751 1.589541 0.126742
v 0.372175 1.628512 0.129843
v 0.444527 1.628512 0.273688
v 0.518588 1.515808 0.351076
v 0.467034 1.589541 0.248580
v 0.444527 1.628512 0.273688
v 0.505393 1.541466 0.394697
v 0.544046 1.391750 0.401689
v 0.518588 1.515808 0.351076
v 0.505393 1.541466 0.394697
v 0.535449 1.395010 0.454453
v 0.535324 1.256757 0.384350
v 0.544046 1.391750 0.401689
v 0.535449 1.395010 0.454453
v 0.525152 1.235643 0.433981
v 0.495193 1.153686 0.304563
v 0.535324 1.256757 0.384350
v 0.525152 1.235643 0.433981
v 0.477772 1.113964 0.339783
v 0.436392 1.115263 0.187661
v 0.495193 1.153686 0.304563
v 0.477772 1.113964 0.339783
v 0.408351 1.068603 0.201765
v 0.377592 1.153686 0.070758
v 0.436392 1.115263 0.187661
v 0.408351 1.068603 0.201765
v 0.338930 1.113964 0.063747
v 0.244268 0.543805 0.132561
v 0.268977 0.480347 0.181684
v 0.366607 0.288576 -0.007297
v 0.303576 0.450458 -0.132611
v 0.238899 0.626919 0.121885
v 0.244268 0.543805 0.132561
v 0.303576 0.450458 -0.132611
v 0.289878 0.662480 -0.159844
v 0.254573 0.703299 0.153047
v 0.238899 0.626919 0.121885
v 0.289878 0.662480 -0.159844
v 0.329862 0.857325 -0.080351
v 0.286314 0.748695 0.216152
v 0.254573 0.703299 0.153047
v 0.329862 0.857325 -0.080351
v 0.410834 0.973132 0.080630
v 0.324044 0.748695 0.291166
v 0.286314 0.748695 0.216152
v 0.410834 0.973132 0.080630
v 0.507084 0.973132 0.271989
v 0.355785 0.703299 0.354271
v 0.324044 0.748695 0.291166
v 0.507084 0.973132 0.271989
v 0.588056 0.857325 0.432971
v 0.371459 0.626919 0.385433
v 0.355785 0.703299 0.354271
v 0.588056 0.857325 0.432971
v 0.628040 0.662481 0.512464
v 0.366090 0.543805 0.374758
v 0.371459 0.626919 0.385433
v 0.628040 0.662481 0.512464
v 0.614342 0.450459 0.485231
v 0.341381 0.480347 0.325634
v 0.366090 0.543805 0.374758
v 0.614342 0.450459 0.485231
v 0.551311 0.288576 0.359918
v 0.305179 0.456690 0.253659
v 0.341381 0.480347 0.325634
v 0.551311 0.288576 0.359918
v 0.458959 0.228228 0.176310
v 0.268977 0.480347 0.181684
v 0.305179 0.456690 0.253659
v 0.458959 0.228228 0.176310
v 0.366607 0.288576 -0.007297
v 0.303576 0.450458 -0.132611
v 0.366607 0.288576 -0.007297
v 0.357080 0.252351 -0.026240
v 0.287546 0.430935 -0.164482
v 0.289878 0.662480 -0.159844
v 0.303576 0.450458 -0.132611
v 0.287546 0.430935 -0.164482
v 0.272435 0.664830 -0.194525
v 0.329862 0.857325 -0.080351
v 0.289878 0.662480 -0.159844
v 0.272435 0.664830 -0.194525
v 0.316544 0.879777 -0.106830
v 0.410834 0.973132 0.080630
v 0.329862 0.857325 -0.080351
v 0.316544 0.879777 -0.106830
v 0.405869 1.007531 0.070759
v 0.507084 0.973132 0.271989
v 0.410834 0.973132 0.080630
v 0.405869 1.007531 0.070759
v 0.512049 1.007531 0.281861
v 0.588056 0.857325 0.432971
v 0.507084 0.973132 0.271989
v 0.512049 1.007531 0.281861
v 0.601374 0.879777 0.459450
v 0.628040 0.662481 0.512464
v 0.588056 0.857325 0.432971
v 0.601374 0.879777 0.459450
v 0.645483 0.664831 0.547145
v 0.614342 0.450459 0.485231
v 0.628040 0.662481 0.512464
v 0.645483 0.664831 0.547145
v 0.630372 0.430935 0.517102
v 0.551311 0.288576 0.359918
v 0.614342 0.450459 0.485231
v 0.630372 0.430935 0.517102
v 0.560839 0.252351 0.378860
v 0.458959 0.228228 0.176310
v 0.551311 0.288576 0.359918
v 0.560839 0.252351 0.378860
v 0.458959 0.185777 0.176310
v 0.366607 0.288576 -0.007297
v 0.458959 0.228228 0.176310
v 0.458959 0.185777 0.176310
v 0.357080 0.252351 -0.026240
v 0.287546 0.430935 -0.164482
v 0.357080 0.252351 -0.026240
v 0.305884 0.226187 -0.018309
v 0.231468 0.417298 -0.166257
v 0.272435 0.664830 -0.194525
v 0.287546 0.430935 -0.164482
v 0.231468 0.417298 -0.166257
v 0.215296 0.667600 -0.198409
v 0.316544 0.879777 -0.106830
v 0.272435 0.664830 -0.194525
v 0.215296 0.667600 -0.198409
v 0.262502 0.897624 -0.104558
v 0.405869 1.007531 0.070759
v 0.316544 0.879777 -0.106830
v 0.262502 0.897624 -0.104558
v 0.358099 1.034339 0.085501
v 0.512049 1.007531 0.281861
v 0.405869 1.007531 0.070759
v 0.358099 1.034339 0.085501
v 0.471735 1.034339 0.311424
v 0.601374 0.879777 0.459450
v 0.512049 1.007531 0.281861
v 0.471735 1.034339 0.311424
v 0.567332 0.897624 0.501483
v 0.645483 0.664831 0.547145
v 0.601374 0.879777 0.459450
v 0.567332 0.897624 0.501483
v 0.614538 0.667600 0.595335
v 0.630372 0.430935 0.517102
v 0.645483 0.664831 0.547145
v 0.614538 0.667600 0.595335
v 0.598366 0.417298 0.563182
v 0.560839 0.252351 0.378860
v 0.630372 0.430935 0.517102
v 0.598366 0.417298 0.563182
v 0.523950 0.226187 0.415234
v 0.458959 0.185777 0.176310
v 0.560839 0.252351 0.378860
v 0.523950 0.226187 0.415234
v 0.414917 0.154943 0.198463
v 0.357080 0.252351 -0.026240
v 0.458959 0.185777 0.176310
v 0.414917 0.154943 0.198463
v 0.305884 0.226187 -0.018309
v 0.293976 1.274613 0.159258
v 0.284094 1.370963 0.139613
v 0.341649 1.367567 0.127314
v 0.350207 1.284127 0.144328
v 0.284094 1.370963 0.139613
v 0.311782 1.448229 0.194659
v 0.365627 1.434482 0.174986
v 0.341649 1.367567 0.127314
v 0.311782 1.448229 0.194659
v 0.356189 1.448229 0.282947
v 0.404085 1.434482 0.251446
v 0.365627 1.434482 0.174986
v 0.356189 1.448229 0.282947
v 0.383877 1.370963 0.337994
v 0.428063 1.367567 0.299117
v 0.404085 1.434482 0.251446
v 0.383877 1.370963 0.337994
v 0.373995 1.274613 0.318348
v 0.419506 1.284127 0.282104
v 0.428063 1.367567 0.299117
v 0.373995 1.274613 0.318348
v 0.333986 1.231734 0.238803
v 0.384856 1.246992 0.213216
v 0.419506 1.284127 0.282104
v 0.333986 1.231734 0.238803
v 0.293976 1.274613 0.159258
v 0.350207 1.284127 0.144328
v 0.384856 1.246992 0.213216
vn 0.7314 -0.0634 -0.6790
vn 0.7561 0.1777 -0.6298
vn 0.8563 0.2851 -0.4307
vn 0.9564 0.1777 -0.2316
vn 0.9812 -0.0634 -0.1824
vn 0.9119 -0.2568 -0.3202
vn 0.8007 -0.2568 -0.5412
vn 0.5158 -0.1201 -0.8482
vn 0.5626 0.3364 -0.7552
vn 0.7522 0.5395 -0.3783
vn 0.9417 0.3364 -0.0015
vn 0.9885 -0.1201 0.0916
vn 0.8574 -0.4861 -0.1692
vn 0.6470 -0.4861 -0.5875
vn -0.2162 -0.2163 -0.9521
vn -0.1319 0.6061 -0.7844
vn 0.2096 0.9721 -0.1055
vn 0.5511 0.6061 0.5735
vn 0.6355 -0.2163 0.7412
vn 0.3992 -0.8758 0.2713
vn 0.0201 -0.8758 -0.4822
vn 0.2725 -0.1653 -0.9478
vn 0.3370 0.4632 -0.8197
vn 0.5980 0.7429 -0.3008
vn 0.8590 0.4632 0.2181
vn 0.9234 -0.1653 0.3463
vn 0.7428 -0.6694 -0.0128
vn 0.4531 -0.6694 -0.5887
vn 0.9129 0.4035 0.0621
vn 0.9783 0.0874 0.1880
vn 0.9569 -0.2539 0.1411
vn 0.8564 -0.5126 -0.0620
vn 0.7089 -0.6086 -0.3565
vn 0.7089 -0.6086 -0.3566
vn 0.5603 -0.5126 -0.6506
vn 0.4572 -0.2539 -0.8524
vn 0.4322 0.0874 -0.8975
vn 0.4944 0.4035 -0.7699
vn 0.6244 0.5926 -0.5088
vn 0.7808 0.5926 -0.1980
vn 0.5290 -0.3810 -0.7583
vn 0.4530 -0.0847 -0.8875
vn 0.4531 -0.0847 -0.8874
vn 0.4580 0.2536 -0.8520
vn 0.4579 0.2537 -0.8520
vn 0.5478 0.5238 -0.6523
vn 0.5478 0.5239 -0.6523
vn 0.6957 0.6273 -0.3499
vn 0.8503 0.5238 -0.0508
vn 0.8503 0.5238 -0.0509
vn 0.9571 0.2536 0.1403
vn 0.9826 -0.0847 0.1653
vn 0.9242 -0.3810 0.0273
vn 0.9242 -0.3810 0.0274
vn 0.8042 -0.5508 -0.2235
vn 0.8042 -0.5508 -0.2234
vn 0.6588 -0.5508 -0.5124
vn 0.6244 0.5926 -0.5089
vn 0.8934 -0.0000 -0.4493
vn 0.1626 -0.5636 -0.8099
vn 0.1627 -0.5636 -0.8099
vn 0.0613 -0.1233 -0.9905
vn 0.0614 -0.1233 -0.9905
vn 0.0807 0.3623 -0.9286
vn 0.0806 0.3623 -0.9286
vn 0.2167 0.7376 -0.6396
vn 0.2166 0.7376 -0.6395
vn 0.4268 0.8785 -0.2147
vn 0.6426 0.7376 0.2074
vn 0.6426 0.7376 0.2073
vn 0.7936 0.3623 0.4889
vn 0.7936 0.3623 0.4888
vn 0.8318 -0.1233 0.5412
vn 0.8318 -0.1233 0.5413
vn 0.7472 -0.5636 0.3522
vn 0.7471 -0.5636 0.3523
vn 0.5683 -0.8227 -0.0154
vn 0.5682 -0.8227 -0.0154
vn 0.3511 -0.8227 -0.4470
vn 0.3512 -0.8227 -0.4470
vn 0.2096 0.9721 -0.1054
vt 0.563178 0.567271
vt 0.578642 0.499802
vt 0.500566 0.517548
vt 0.535313 0.445696
vt 0.465819 0.445696
vt 0.422490 0.499802
vt 0.437954 0.567271
vt 0.500566 0.597297
vt 0.608763 0.591262
vt 0.635492 0.474642
vt 0.500539 0.505316
vt 0.560599 0.381120
vt 0.440479 0.381120
vt 0.365585 0.474642
vt 0.392315 0.591262
vt 0.500539 0.643162
vt 0.625790 0.616994
vt 0.656718 0.482056
vt 0.635797 0.486811
vt 0.609013 0.603671
vt 0.570060 0.373844
vt 0.560750 0.393097
vt 0.431072 0.373844
vt 0.440382 0.393097
vt 0.344414 0.482056
vt 0.365335 0.486811
vt 0.375342 0.616994
vt 0.392119 0.603671
vt 0.500566 0.677047
vt 0.500566 0.655678
vt 0.641884 0.552145
vt 0.584329 0.618291
vt 0.715123 0.818180
vt 0.861947 0.649444
vt 0.654392 0.465513
vt 0.893854 0.428446
vt 0.617882 0.385900
vt 0.800716 0.225352
vt 0.543945 0.338581
vt 0.612103 0.104643
vt 0.456055 0.338581
vt 0.387897 0.104643
vt 0.382118 0.385900
vt 0.199284 0.225352
vt 0.345608 0.465513
vt 0.106146 0.428446
vt 0.358115 0.552145
vt 0.138053 0.649443
vt 0.415671 0.618291
vt 0.284877 0.818180
vt 0.500000 0.642948
vt 0.500000 0.881082
vt 0.753980 0.883210
vt 0.927323 0.684009
vt 0.964994 0.423110
vt 0.855033 0.183348
vt 0.632351 0.040845
vt 0.367649 0.040845
vt 0.144967 0.183348
vt 0.035006 0.423110
vt 0.072677 0.684009
vt 0.246020 0.883210
vt 0.500000 0.957470
vt 0.649052 0.566361
vt 0.588589 0.635848
vt 0.725991 0.845835
vt 0.880231 0.668575
vt 0.662192 0.475352
vt 0.913751 0.436413
vt 0.623837 0.391717
vt 0.815908 0.223059
vt 0.546165 0.342008
vt 0.617766 0.096252
vt 0.453835 0.342008
vt 0.382234 0.096252
vt 0.376163 0.391717
vt 0.184092 0.223059
vt 0.337808 0.475352
vt 0.086249 0.436413
vt 0.350948 0.566361
vt 0.119769 0.668575
vt 0.411411 0.635848
vt 0.274009 0.845835
vt 0.500000 0.661751
vt 0.500000 0.911916
vt 0.749306 0.885501
vt 0.919459 0.689953
vt 0.956437 0.433840
vt 0.848499 0.198475
vt 0.629915 0.058586
vt 0.370085 0.058585
vt 0.151501 0.198475
vt 0.043563 0.433839
vt 0.080541 0.689953
vt 0.250694 0.885501
vt 0.500000 0.958399
vt 0.766810 0.914151
vt 0.948910 0.704886
vt 0.988485 0.430807
vt 0.872968 0.178933
vt 0.639037 0.029231
vt 0.360963 0.029231
vt 0.127032 0.178933
vt 0.011516 0.430807
vt 0.051090 0.704886
vt 0.233190 0.914150
vt 0.500000 0.992162
vt 0.625505 0.604558
vt 0.656370 0.469897
vt 0.569890 0.361907
vt 0.431188 0.361907
vt 0.344708 0.469897
vt 0.375572 0.604558
vt 0.500539 0.664487
s 0
usemtl lambert2
f 1/1/1 2/2/1 3/3/1
f 4/2/2 5/4/2 6/3/2
f 7/4/3 8/5/3 9/3/3
f 10/5/4 11/6/4 12/3/4
f 13/6/5 14/7/5 15/3/5
f 16/7/6 17/8/6 18/3/6
f 19/8/7 20/1/7 21/3/7
f 22/9/8 23/10/8 24/11/8
f 25/10/9 26/12/9 27/11/9
f 28/12/10 29/13/10 30/11/10
f 31/13/11 32/14/11 33/11/11
f 34/14/12 35/15/12 36/11/12
f 37/15/13 38/16/13 39/11/13
s 1
f 40/16/14 41/9/14 42/11/14
s 0
f 43/17/15 44/18/15 45/19/15
f 43/17/15 45/19/15 46/20/15
s 1
f 47/18/16 48/21/16 49/22/16
s 0
f 47/18/16 49/22/16 50/19/16
f 51/21/17 52/23/17 53/24/17
f 51/21/17 53/24/17 54/22/17
f 55/23/18 56/25/18 57/26/18
f 55/23/18 57/26/18 58/24/18
s 1
f 59/25/19 60/27/19 61/28/19
s 0
f 59/25/19 61/28/19 62/26/19
f 63/27/20 64/29/20 65/30/20
f 63/27/20 65/30/20 66/28/20
f 67/29/21 68/17/21 69/20/21
f 67/29/21 69/20/21 70/30/21
f 71/20/22 72/19/22 73/2/22
f 71/20/22 73/2/22 74/1/22
f 75/19/23 76/22/23 77/4/23
f 75/19/23 77/4/23 78/2/23
f 79/22/24 80/24/24 81/5/24
f 79/22/24 81/5/24 82/4/24
f 83/24/25 84/26/25 85/6/25
f 83/24/25 85/6/25 86/5/25
f 87/26/26 88/28/26 89/7/26
f 87/26/26 89/7/26 90/6/26
f 91/28/27 92/30/27 93/8/27
f 91/28/27 93/8/27 94/7/27
f 95/30/28 96/20/28 97/1/28
f 95/30/28 97/1/28 98/8/28
f 99/31/29 100/32/29 101/33/29
f 99/31/29 101/33/29 102/34/29
f 103/35/30 104/31/30 105/34/30
f 103/35/30 105/34/30 106/36/30
f 107/37/31 108/35/31 109/36/31
f 107/37/31 109/36/31 110/38/31
f 111/39/32 112/37/32 113/38/32
f 111/39/32 113/38/32 114/40/32
f 115/41/33 116/39/33 117/40/33
f 115/41/34 117/40/34 118/42/34
f 119/43/35 120/41/35 121/42/35
f 119/43/35 121/42/35 122/44/35
f 123/45/36 124/43/36 125/44/36
f 123/45/36 125/44/36 126/46/36
f 127/47/37 128/45/37 129/46/37
f 127/47/37 129/46/37 130/48/37
f 131/49/38 132/47/38 133/48/38
f 131/49/38 133/48/38 134/50/38
s 1
f 135/51/39 136/49/39 137/50/39
s 0
f 135/51/39 137/50/39 138/52/39
f 139/32/40 140/51/40 141/52/40
f 139/32/40 141/52/40 142/33/40
s 1
f 143/34/41 144/33/41 145/53/41
s 0
f 143/34/41 145/53/41 146/54/41
f 147/36/42 148/34/42 149/54/42
f 147/36/43 149/54/43 150/55/43
f 151/38/44 152/36/44 153/55/44
f 151/38/45 153/55/45 154/56/45
f 155/40/46 156/38/46 157/56/46
f 155/40/47 157/56/47 158/57/47
f 159/42/48 160/40/48 161/57/48
f 159/42/48 161/57/48 162/58/48
f 163/44/49 164/42/49 165/58/49
f 163/44/50 165/58/50 166/59/50
f 167/46/51 168/44/51 169/59/51
f 167/46/51 169/59/51 170/60/51
f 171/48/52 172/46/52 173/60/52
f 171/48/52 173/60/52 174/61/52
f 175/50/53 176/48/53 177/61/53
f 175/50/54 177/61/54 178/62/54
f 179/52/55 180/50/55 181/62/55
f 179/52/56 181/62/56 182/63/56
f 183/33/57 184/52/57 185/63/57
f 183/33/57 185/63/57 186/53/57
f 187/64/29 188/65/29 189/66/29
f 187/64/29 189/66/29 190/67/29
f 191/68/30 192/64/30 193/67/30
f 191/68/30 193/67/30 194/69/30
f 195/70/31 196/68/31 197/69/31
f 195/70/31 197/69/31 198/71/31
f 199/72/32 200/70/32 201/71/32
f 199/72/32 201/71/32 202/73/32
f 203/74/34 204/72/34 205/73/34
f 203/74/34 205/73/34 206/75/34
f 207/76/35 208/74/35 209/75/35
f 207/76/35 209/75/35 210/77/35
f 211/78/36 212/76/36 213/77/36
s 1
f 211/78/36 213/77/36 214/79/36
s 0
f 215/80/37 216/78/37 217/79/37
f 215/80/37 217/79/37 218/81/37
f 219/82/38 220/80/38 221/81/38
f 219/82/38 221/81/38 222/83/38
f 223/84/58 224/82/58 225/83/58
f 223/84/39 225/83/39 226/85/39
f 227/65/40 228/84/40 229/85/40
f 227/65/40 229/85/40 230/66/40
f 231/67/59 232/66/59 233/86/59
f 231/67/59 233/86/59 234/87/59
f 235/69/59 236/67/59 237/87/59
f 235/69/59 237/87/59 238/88/59
f 239/71/59 240/69/59 241/88/59
f 239/71/59 241/88/59 242/89/59
f 243/73/59 244/71/59 245/89/59
f 243/73/59 245/89/59 246/90/59
f 247/75/59 248/73/59 249/90/59
f 247/75/59 249/90/59 250/91/59
f 251/77/59 252/75/59 253/91/59
f 251/77/59 253/91/59 254/92/59
f 255/79/59 256/77/59 257/92/59
f 255/79/59 257/92/59 258/93/59
f 259/81/59 260/79/59 261/93/59
f 259/81/59 261/93/59 262/94/59
f 263/83/59 264/81/59 265/94/59
f 263/83/59 265/94/59 266/95/59
f 267/85/59 268/83/59 269/95/59
f 267/85/59 269/95/59 270/96/59
f 271/66/59 272/85/59 273/96/59
f 271/66/59 273/96/59 274/86/59
f 275/87/60 276/86/60 277/97/60
f 275/87/61 277/97/61 278/98/61
f 279/88/62 280/87/62 281/98/62
f 279/88/63 281/98/63 282/99/63
f 283/89/64 284/88/64 285/99/64
f 283/89/65 285/99/65 286/100/65
f 287/90/66 288/89/66 289/100/66
s 1
f 287/90/67 289/100/67 290/101/67
s 0
f 291/91/68 292/90/68 293/101/68
f 291/91/68 293/101/68 294/102/68
f 295/92/69 296/91/69 297/102/69
f 295/92/70 297/102/70 298/103/70
f 299/93/71 300/92/71 301/103/71
f 299/93/72 301/103/72 302/104/72
f 303/94/73 304/93/73 305/104/73
f 303/94/74 305/104/74 306/105/74
f 307/95/75 308/94/75 309/105/75
f 307/95/76 309/105/76 310/106/76
f 311/96/77 312/95/77 313/106/77
f 311/96/78 313/106/78 314/107/78
f 315/86/79 316/96/79 317/107/79
f 315/86/80 317/107/80 318/97/80
f 319/108/15 320/109/15 321/10/15
f 319/108/15 321/10/15 322/9/15
f 323/109/16 324/110/16 325/12/16
f 323/109/16 325/12/16 326/10/16
f 327/110/17 328/111/17 329/13/17
f 327/110/81 329/13/81 330/12/81
f 331/111/18 332/112/18 333/14/18
f 331/111/18 333/14/18 334/13/18
f 335/112/19 336/113/19 337/15/19
f 335/112/19 337/15/19 338/14/19
f 339/113/20 340/114/20 341/16/20
f 339/113/20 341/16/20 342/15/20
f 343/114/21 344/108/21 345/9/21
f 343/114/21 345/9/21 346/16/21
o polySurface11_lambert3_0
v 0.637711 1.662528 0.608518
v 0.660803 1.611139 0.654427
v 0.222015 1.662528 -0.217940
v 0.519875 1.518464 0.374244
v 0.540347 1.418701 0.414945
v 0.547813 1.382324 0.429788
v 0.660803 0.184079 0.654427
v 0.620601 0.671795 0.574500
v 0.615789 0.597318 0.564934
v 0.605133 0.432387 0.543748
v 0.589496 0.823364 0.512659
v 0.540799 1.273766 0.415844
v 0.575450 0.891807 0.484735
v 0.538242 1.234182 0.410759
v 0.512459 0.981893 0.359500
v 0.505969 1.151296 0.346597
v 0.494201 1.121073 0.323200
v 0.484016 1.022572 0.302952
v 0.446915 1.090174 0.229190
v 0.375328 1.022572 0.086866
v 0.429672 1.078907 0.194909
v 0.412429 1.090174 0.160628
v 0.365144 1.121073 0.066618
v 0.582992 0.375522 0.499729
v 0.533958 0.249594 0.402242
v 0.637711 0.132689 0.608518
v 0.346885 0.981893 0.030318
v 0.353375 1.151296 0.043221
v 0.283894 0.891807 -0.094917
v 0.321103 1.234182 -0.020941
v 0.504757 1.540085 0.344187
v 0.463299 1.599379 0.261762
v 0.396046 1.599379 0.128056
v 0.354588 1.540085 0.045631
v 0.339470 1.518464 0.015574
v 0.318997 1.418701 -0.025127
v 0.311532 1.382324 -0.039970
v 0.215159 1.658651 -0.231572
v 0.198923 1.611139 -0.263849
v 0.215179 0.136124 -0.231532
v 0.198923 0.184079 -0.263849
v 0.222015 0.132689 -0.217940
v 0.501517 0.228396 0.337745
v 0.318545 1.273766 -0.026026
v 0.269849 0.823364 -0.122840
v 0.238744 0.671795 -0.184682
v 0.243555 0.597318 -0.175116
v 0.254212 0.432387 -0.153930
v 0.276353 0.375522 -0.109910
v 0.325387 0.249594 -0.012424
v 0.357828 0.228396 0.052073
v 0.429672 0.181452 0.194909
v 0.215159 1.658651 -0.231572
v 0.198923 1.611139 -0.263849
v 0.222015 1.662528 -0.217940
v -0.634030 0.132689 0.212638
v 0.222015 0.132689 -0.217940
v 0.637711 0.132689 0.608518
v -0.218334 0.132689 1.039096
v -0.657122 1.611139 0.166729
v 0.198923 1.611139 -0.263849
v 0.198923 0.184079 -0.263849
v -0.657122 0.184079 0.166729
v -0.195242 0.184079 1.085005
v 0.660803 0.184079 0.654427
v 0.660803 1.611139 0.654427
v -0.195242 1.611139 1.085005
v -0.218334 1.662528 1.039096
v 0.637711 1.662528 0.608518
v 0.222015 1.662528 -0.217940
v -0.634030 1.662528 0.212638
v -0.634030 0.132689 0.212638
v -0.657122 0.184079 0.166729
v 0.198923 0.184079 -0.263849
v 0.222015 0.132689 -0.217940
v 0.637711 0.132689 0.608518
v 0.660803 0.184079 0.654427
v -0.195242 0.184079 1.085005
v -0.218334 0.132689 1.039096
v -0.657122 1.611139 0.166729
v -0.634030 1.662528 0.212638
v 0.222015 1.662528 -0.217940
v 0.198923 1.611139 -0.263849
v -0.218334 1.662528 1.039096
v -0.195242 1.611139 1.085005
v 0.660803 1.611139 0.654427
v 0.637711 1.662528 0.608518
v -0.657122 0.184079 0.166729
v -0.634030 0.132689 0.212638
v -0.218334 0.132689 1.039096
v -0.195242 0.184079 1.085005
v -0.195242 1.611139 1.085005
v -0.218334 1.662528 1.039096
v -0.634030 1.662528 0.212638
v -0.657122 1.611139 0.166729
vn 0.8934 -0.0000 -0.4493
vn 0.8934 -0.0000 -0.4494
vn 0.8933 -0.0120 -0.4493
vn -0.8934 -0.0000 0.4493
vn -0.0000 -1.0000 -0.0000
vn -0.4493 -0.0000 -0.8934
vn 0.4493 -0.0000 0.8934
vn -0.0000 1.0000 -0.0000
vn -0.3177 -0.7071 -0.6317
vn 0.3177 -0.7071 0.6317
vn -0.3177 0.7071 -0.6317
vn 0.3177 0.7071 0.6317
vt 0.101527 0.074550
vt 0.088702 0.098356
vt 0.332407 0.077924
vt 0.166974 0.121484
vt 0.155604 0.146382
vt 0.151457 0.155461
vt 0.088702 0.454506
vt 0.111031 0.332787
vt 0.113703 0.351374
vt 0.119622 0.392535
vt 0.128307 0.294960
vt 0.155353 0.182553
vt 0.136107 0.277878
vt 0.156773 0.192432
vt 0.171093 0.255396
vt 0.174698 0.213118
vt 0.181234 0.220661
vt 0.186890 0.245244
vt 0.207496 0.228372
vt 0.247256 0.245244
vt 0.217073 0.231184
vt 0.226650 0.228372
vt 0.252913 0.220661
vt 0.131919 0.406727
vt 0.159153 0.438155
vt 0.101527 0.467331
vt 0.263054 0.255396
vt 0.259449 0.213118
vt 0.298039 0.277878
vt 0.277373 0.192432
vt 0.175371 0.116088
vt 0.198397 0.101290
vt 0.235749 0.101290
vt 0.258776 0.116089
vt 0.267172 0.121484
vt 0.278543 0.146382
vt 0.282689 0.155461
vt 0.336215 0.078201
vt 0.345232 0.112689
vt 0.336204 0.466473
vt 0.345232 0.454506
vt 0.332407 0.467331
vt 0.177170 0.443445
vt 0.278794 0.182553
vt 0.305840 0.294960
vt 0.323116 0.332787
vt 0.320444 0.351374
vt 0.314525 0.392535
vt 0.302228 0.406727
vt 0.274994 0.438155
vt 0.256976 0.443445
vt 0.217073 0.455161
vt 0.052123 0.479650
vt 0.040528 0.517529
vt 0.057020 0.479097
vt 0.429494 0.486703
vt 0.737022 0.486703
vt 0.737022 0.189804
vt 0.429494 0.189804
vt 0.513278 0.694475
vt 0.820806 0.686869
vt 0.820806 0.214547
vt 0.513278 0.214547
vt 0.539834 0.739176
vt 0.847361 0.739176
vt 0.847361 0.281188
vt 0.539834 0.281188
vt 0.836051 0.159900
vt 0.431748 0.150841
vt 0.432590 0.389553
vt 0.836893 0.397244
vt 0.429494 0.503195
vt 0.737022 0.503195
vt 0.737022 0.173312
vt 0.429494 0.173312
vt 0.840432 0.719197
vt 0.436136 0.713038
vt 0.839279 0.790618
vt 0.434982 0.792065
vt 0.810722 0.694352
vt 0.497331 0.710844
vt 0.794229 0.710844
vt 0.480839 0.694352
vt 0.810722 0.236363
vt 0.480839 0.258303
vt 0.794229 0.216757
vt 0.497331 0.219871
s 0
usemtl lambert3
f 347/115/82 348/116/82 349/117/82
f 350/118/82 348/116/82 351/119/82
f 351/119/82 348/116/82 352/120/82
f 348/116/82 353/121/82 354/122/82
f 354/122/82 353/121/82 355/123/82
f 355/123/82 353/121/82 356/124/82
f 354/122/82 357/125/82 348/116/82
f 348/116/82 357/125/82 352/120/82
f 352/120/82 357/125/82 358/126/82
f 357/125/82 359/127/82 358/126/82
f 358/126/82 359/127/82 360/128/82
f 359/127/82 361/129/82 360/128/82
f 360/128/82 361/129/82 362/130/82
f 362/130/82 361/129/82 363/131/82
f 361/129/82 364/132/82 363/131/82
f 363/131/82 364/132/82 365/133/82
f 364/132/82 366/134/82 365/133/82
f 365/133/82 366/134/82 367/135/82
f 367/135/82 366/134/82 368/136/82
f 368/136/82 366/134/82 369/137/82
f 356/124/82 353/121/82 370/138/82
f 370/138/82 353/121/82 371/139/82
f 353/121/82 372/140/82 371/139/82
f 366/134/82 373/141/82 369/137/82
f 369/137/82 373/141/82 374/142/82
f 373/141/82 375/143/82 374/142/82
f 374/142/82 375/143/82 376/144/82
f 350/118/82 377/145/82 348/116/82
f 377/145/82 378/146/82 348/116/82
f 348/116/82 378/146/82 349/117/82
f 378/146/82 379/147/82 349/117/82
f 379/147/82 380/148/82 349/117/82
f 380/148/82 381/149/82 349/117/82
f 381/149/82 382/150/82 349/117/82
f 382/150/82 383/151/82 349/117/82
f 349/117/83 383/151/83 384/152/83
f 384/152/82 383/151/82 385/153/82
f 386/154/82 387/155/82 388/156/82
f 387/155/82 385/153/82 388/156/82
f 371/139/82 372/140/82 389/157/82
f 383/151/82 390/158/82 385/153/82
f 376/144/82 375/143/82 390/158/82
f 390/158/82 375/143/82 385/153/82
s 1
f 391/159/84 392/160/82 375/143/82
s 0
f 375/143/82 392/160/82 385/153/82
f 385/153/82 392/160/82 388/156/82
f 392/160/82 393/161/82 388/156/82
f 393/161/82 394/162/82 388/156/82
f 394/162/82 395/163/82 388/156/82
f 395/163/82 396/164/82 388/156/82
f 396/164/82 397/165/82 388/156/82
f 389/157/82 372/140/82 398/166/82
f 372/140/82 388/156/82 398/166/82
f 397/165/82 398/166/82 388/156/82
f 399/167/85 400/168/85 401/169/85
f 402/170/86 403/171/86 404/172/86
f 402/170/86 404/172/86 405/173/86
f 406/174/87 407/175/87 408/176/87
f 406/174/87 408/176/87 409/177/87
f 410/178/88 411/179/88 412/180/88
f 410/178/88 412/180/88 413/181/88
f 414/182/89 415/183/89 416/184/89
f 414/182/89 416/184/89 417/185/89
f 418/170/90 419/186/90 420/187/90
f 418/170/90 420/187/90 421/171/90
f 422/172/91 423/188/91 424/189/91
f 422/172/91 424/189/91 425/173/91
f 426/190/92 427/185/92 428/184/92
f 426/190/92 428/184/92 429/191/92
f 430/182/93 431/192/93 432/193/93
f 430/182/93 432/193/93 433/183/93
f 437/194/85 435/195/85 436/196/85
f 435/195/85 437/194/85 434/197/85
f 434/197/85 437/194/85 438/198/85
f 434/197/85 438/198/85 441/199/85
f 441/199/85 438/198/85 439/200/85
f 441/199/85 439/200/85 440/201/85
o polySurface13_lambert2_0
v 0.420585 1.284127 -2.507846
v 0.429531 1.367567 -2.524659
v 0.434636 1.345620 -2.413024
v 0.429531 1.367567 -2.524659
v 0.404466 1.434482 -2.477550
v 0.434636 1.345620 -2.413024
v 0.404466 1.434482 -2.477550
v 0.364265 1.434482 -2.401992
v 0.434636 1.345620 -2.413024
v 0.364265 1.434482 -2.401992
v 0.339200 1.367567 -2.354882
v 0.434636 1.345620 -2.413024
v 0.339200 1.367567 -2.354882
v 0.348145 1.284127 -2.371696
v 0.434636 1.345620 -2.413024
v 0.348145 1.284127 -2.371696
v 0.384365 1.246992 -2.439771
v 0.434636 1.345620 -2.413024
v 0.384365 1.246992 -2.439771
v 0.420585 1.284127 -2.507846
v 0.434636 1.345620 -2.413024
v 0.468420 0.534266 -2.474465
v 0.476532 0.609930 -2.489711
v 0.456732 0.590028 -2.401479
v 0.476532 0.609930 -2.489711
v 0.453803 0.670607 -2.446993
v 0.456732 0.590028 -2.401479
v 0.453803 0.670607 -2.446993
v 0.417349 0.670607 -2.378478
v 0.456732 0.590028 -2.401479
v 0.417349 0.670607 -2.378478
v 0.394621 0.609930 -2.335760
v 0.456732 0.590028 -2.401479
v 0.394621 0.609930 -2.335760
v 0.402732 0.534266 -2.351006
v 0.456732 0.590028 -2.401479
v 0.402732 0.534266 -2.351006
v 0.435576 0.500593 -2.412735
v 0.456732 0.590028 -2.401479
v 0.435576 0.500593 -2.412735
v 0.468420 0.534266 -2.474465
v 0.456732 0.590028 -2.401479
v 0.378777 1.316190 -2.540135
v 0.362332 1.275787 -2.509228
v 0.496460 1.153686 -2.527985
v 0.538410 1.256757 -2.606831
v 0.382351 1.369108 -2.546852
v 0.378777 1.316190 -2.540135
v 0.538410 1.256757 -2.606831
v 0.547527 1.391750 -2.623966
v 0.371919 1.417739 -2.527246
v 0.382351 1.369108 -2.546852
v 0.547527 1.391750 -2.623966
v 0.520915 1.515808 -2.573949
v 0.350794 1.446643 -2.487541
v 0.371919 1.417739 -2.527246
v 0.520915 1.515808 -2.573949
v 0.467024 1.589541 -2.472662
v 0.325682 1.446643 -2.440343
v 0.350794 1.446643 -2.487541
v 0.467024 1.589541 -2.472662
v 0.402964 1.589541 -2.352262
v 0.304556 1.417739 -2.400638
v 0.325682 1.446643 -2.440343
v 0.402964 1.589541 -2.352262
v 0.349073 1.515808 -2.250974
v 0.294125 1.369108 -2.381032
v 0.304556 1.417739 -2.400638
v 0.349073 1.515808 -2.250974
v 0.322462 1.391750 -2.200958
v 0.297698 1.316190 -2.387749
v 0.294125 1.369108 -2.381032
v 0.322462 1.391750 -2.200958
v 0.331578 1.256757 -2.218093
v 0.314143 1.275787 -2.418656
v 0.297698 1.316190 -2.387749
v 0.331578 1.256757 -2.218093
v 0.373529 1.153686 -2.296938
v 0.338238 1.260724 -2.463942
v 0.314143 1.275787 -2.418656
v 0.373529 1.153686 -2.296938
v 0.434994 1.115263 -2.412462
v 0.362332 1.275787 -2.509228
v 0.338238 1.260724 -2.463942
v 0.434994 1.115263 -2.412462
v 0.496460 1.153686 -2.527985
v 0.538410 1.256757 -2.606831
v 0.496460 1.153686 -2.527985
v 0.502801 1.130622 -2.539904
v 0.549079 1.244326 -2.626883
v 0.547527 1.391750 -2.623966
v 0.538410 1.256757 -2.606831
v 0.549079 1.244326 -2.626883
v 0.559137 1.393247 -2.645786
v 0.520915 1.515808 -2.573949
v 0.529779 1.530103 -2.590610
v 0.467024 1.589541 -2.472662
v 0.520915 1.515808 -2.573949
v 0.529779 1.530103 -2.590610
v 0.470329 1.611443 -2.478873
v 0.402964 1.589541 -2.352262
v 0.467024 1.589541 -2.472662
v 0.470329 1.611443 -2.478873
v 0.399660 1.611443 -2.346051
v 0.349073 1.515808 -2.250974
v 0.402964 1.589541 -2.352262
v 0.399660 1.611443 -2.346051
v 0.340209 1.530103 -2.234314
v 0.322462 1.391750 -2.200958
v 0.310852 1.393247 -2.179138
v 0.331578 1.256757 -2.218093
v 0.322462 1.391750 -2.200958
v 0.310852 1.393247 -2.179138
v 0.320909 1.244326 -2.198040
v 0.373529 1.153686 -2.296938
v 0.331578 1.256757 -2.218093
v 0.320909 1.244326 -2.198040
v 0.367188 1.130622 -2.285020
v 0.434994 1.115263 -2.412462
v 0.373529 1.153686 -2.296938
v 0.367188 1.130622 -2.285020
v 0.434994 1.088235 -2.412462
v 0.496460 1.153686 -2.527985
v 0.434994 1.115263 -2.412462
v 0.434994 1.088235 -2.412462
v 0.502801 1.130622 -2.539904
v 0.549079 1.244326 -2.626883
v 0.502801 1.130622 -2.539904
v 0.479851 1.113964 -2.563595
v 0.529379 1.235643 -2.656682
v 0.559137 1.393247 -2.645786
v 0.549079 1.244326 -2.626883
v 0.529379 1.235643 -2.656682
v 0.540142 1.395010 -2.676912
v 0.529779 1.530103 -2.590610
v 0.559137 1.393247 -2.645786
v 0.540142 1.395010 -2.676912
v 0.508724 1.541466 -2.617862
v 0.470329 1.611443 -2.478873
v 0.529779 1.530103 -2.590610
v 0.508724 1.541466 -2.617862
v 0.445099 1.628512 -2.498280
v 0.399660 1.611443 -2.346051
v 0.470329 1.611443 -2.478873
v 0.445099 1.628512 -2.498280
v 0.369468 1.628512 -2.356132
v 0.340209 1.530103 -2.234314
v 0.399660 1.611443 -2.346051
v 0.369468 1.628512 -2.356132
v 0.305843 1.541466 -2.236549
v 0.310852 1.393247 -2.179138
v 0.340209 1.530103 -2.234314
v 0.305843 1.541466 -2.236549
v 0.274425 1.395010 -2.177499
v 0.320909 1.244326 -2.198040
v 0.310852 1.393247 -2.179138
v 0.274425 1.395010 -2.177499
v 0.285188 1.235643 -2.197729
v 0.367188 1.130622 -2.285020
v 0.320909 1.244326 -2.198040
v 0.285188 1.235643 -2.197729
v 0.334716 1.113964 -2.290816
v 0.434994 1.088235 -2.412462
v 0.367188 1.130622 -2.285020
v 0.334716 1.113964 -2.290816
v 0.407283 1.068603 -2.427206
v 0.502801 1.130622 -2.539904
v 0.434994 1.088235 -2.412462
v 0.407283 1.068603 -2.427206
v 0.479851 1.113964 -2.563595
v 0.375918 1.274613 -2.545124
v 0.386248 1.370963 -2.564538
v 0.429531 1.367567 -2.524659
v 0.420585 1.284127 -2.507846
v 0.386248 1.370963 -2.564538
v 0.357305 1.448229 -2.510141
v 0.404466 1.434482 -2.477550
v 0.429531 1.367567 -2.524659
v 0.357305 1.448229 -2.510141
v 0.310885 1.448229 -2.422894
v 0.364265 1.434482 -2.401992
v 0.404466 1.434482 -2.477550
v 0.310885 1.448229 -2.422894
v 0.281942 1.370963 -2.368497
v 0.339200 1.367567 -2.354882
v 0.364265 1.434482 -2.401992
v 0.281942 1.370963 -2.368497
v 0.292272 1.274613 -2.387911
v 0.348145 1.284127 -2.371696
v 0.339200 1.367567 -2.354882
v 0.292272 1.274613 -2.387911
v 0.334095 1.231734 -2.466517
v 0.384365 1.246992 -2.439771
v 0.348145 1.284127 -2.371696
v 0.334095 1.231734 -2.466517
v 0.375918 1.274613 -2.545124
v 0.420585 1.284127 -2.507846
v 0.384365 1.246992 -2.439771
v 0.364509 0.478504 -2.608956
v 0.380733 0.629831 -2.639448
v 0.448714 0.624498 -2.576814
v 0.434664 0.493446 -2.550407
v 0.380733 0.629831 -2.639448
v 0.335276 0.751185 -2.554012
v 0.409347 0.729594 -2.502824
v 0.448714 0.624498 -2.576814
v 0.335276 0.751185 -2.554012
v 0.262368 0.751185 -2.416982
v 0.346207 0.729594 -2.384152
v 0.409347 0.729594 -2.502824
v 0.262368 0.751185 -2.416982
v 0.216910 0.629831 -2.331545
v 0.306840 0.624498 -2.310162
v 0.346207 0.729594 -2.384152
v 0.216910 0.629831 -2.331545
v 0.233134 0.478504 -2.362037
v 0.320890 0.493446 -2.336569
v 0.306840 0.624498 -2.310162
v 0.233134 0.478504 -2.362037
v 0.298822 0.411157 -2.485497
v 0.377777 0.435122 -2.443488
v 0.320890 0.493446 -2.336569
v 0.298822 0.411157 -2.485497
v 0.364509 0.478504 -2.608956
v 0.434664 0.493446 -2.550407
v 0.377777 0.435122 -2.443488
v 0.434664 0.493446 -2.550407
v 0.448714 0.624498 -2.576814
v 0.476532 0.609930 -2.489711
v 0.468420 0.534266 -2.474465
v 0.448714 0.624498 -2.576814
v 0.409347 0.729594 -2.502824
v 0.453803 0.670607 -2.446993
v 0.476532 0.609930 -2.489711
v 0.409347 0.729594 -2.502824
v 0.346207 0.729594 -2.384152
v 0.417349 0.670607 -2.378478
v 0.453803 0.670607 -2.446993
v 0.346207 0.729594 -2.384152
v 0.306840 0.624498 -2.310162
v 0.394621 0.609930 -2.335760
v 0.417349 0.670607 -2.378478
v 0.306840 0.624498 -2.310162
v 0.320890 0.493446 -2.336569
v 0.402732 0.534266 -2.351006
v 0.394621 0.609930 -2.335760
v 0.320890 0.493446 -2.336569
v 0.377777 0.435122 -2.443488
v 0.435576 0.500593 -2.412735
v 0.402732 0.534266 -2.351006
v 0.377777 0.435122 -2.443488
v 0.434664 0.493446 -2.550407
v 0.468420 0.534266 -2.474465
v 0.435576 0.500593 -2.412735
v 0.369000 0.543805 -2.601121
v 0.343172 0.480347 -2.552577
v 0.553832 0.288576 -2.582038
v 0.619720 0.450458 -2.705874
v 0.374613 0.626919 -2.611671
v 0.369000 0.543805 -2.601121
v 0.619720 0.450458 -2.705874
v 0.634039 0.662480 -2.732786
v 0.358229 0.703299 -2.580877
v 0.374613 0.626919 -2.611671
v 0.634039 0.662480 -2.732786
v 0.592243 0.857325 -2.654230
v 0.325049 0.748695 -2.518516
v 0.358229 0.703299 -2.580877
v 0.592243 0.857325 -2.654230
v 0.507601 0.973132 -2.495148
v 0.285608 0.748695 -2.444387
v 0.325049 0.748695 -2.518516
v 0.507601 0.973132 -2.495148
v 0.406988 0.973132 -2.306046
v 0.252429 0.703299 -2.382026
v 0.285608 0.748695 -2.444387
v 0.406988 0.973132 -2.306046
v 0.322347 0.857325 -2.146963
v 0.236044 0.626919 -2.351232
v 0.252429 0.703299 -2.382026
v 0.322347 0.857325 -2.146963
v 0.280550 0.662481 -2.068408
v 0.241657 0.543805 -2.361782
v 0.236044 0.626919 -2.351232
v 0.280550 0.662481 -2.068408
v 0.294869 0.450459 -2.095320
v 0.267485 0.480347 -2.410326
v 0.241657 0.543805 -2.361782
v 0.294869 0.450459 -2.095320
v 0.360757 0.288576 -2.219155
v 0.305329 0.456690 -2.481452
v 0.267485 0.480347 -2.410326
v 0.360757 0.288576 -2.219155
v 0.457295 0.228228 -2.400597
v 0.343172 0.480347 -2.552577
v 0.305329 0.456690 -2.481452
v 0.457295 0.228228 -2.400597
v 0.553832 0.288576 -2.582038
v 0.619720 0.450458 -2.705874
v 0.553832 0.288576 -2.582038
v 0.563792 0.252351 -2.600757
v 0.636477 0.430935 -2.737368
v 0.634039 0.662480 -2.732786
v 0.619720 0.450458 -2.705874
v 0.636477 0.430935 -2.737368
v 0.652273 0.664830 -2.767057
v 0.592243 0.857325 -2.654230
v 0.634039 0.662480 -2.732786
v 0.652273 0.664830 -2.767057
v 0.606165 0.879777 -2.680397
v 0.507601 0.973132 -2.495148
v 0.592243 0.857325 -2.654230
v 0.606165 0.879777 -2.680397
v 0.512792 1.007531 -2.504902
v 0.406988 0.973132 -2.306046
v 0.507601 0.973132 -2.495148
v 0.512792 1.007531 -2.504902
v 0.401798 1.007531 -2.296291
v 0.322347 0.857325 -2.146963
v 0.406988 0.973132 -2.306046
v 0.401798 1.007531 -2.296291
v 0.308425 0.879777 -2.120797
v 0.280550 0.662481 -2.068408
v 0.322347 0.857325 -2.146963
v 0.308425 0.879777 -2.120797
v 0.262316 0.664831 -2.034137
v 0.294869 0.450459 -2.095320
v 0.280550 0.662481 -2.068408
v 0.262316 0.664831 -2.034137
v 0.278112 0.430935 -2.063825
v 0.360757 0.288576 -2.219155
v 0.294869 0.450459 -2.095320
v 0.278112 0.430935 -2.063825
v 0.350797 0.252351 -2.200436
v 0.457295 0.228228 -2.400597
v 0.360757 0.288576 -2.219155
v 0.350797 0.252351 -2.200436
v 0.457295 0.185777 -2.400597
v 0.553832 0.288576 -2.582038
v 0.457295 0.228228 -2.400597
v 0.457295 0.185777 -2.400597
v 0.563792 0.252351 -2.600757
v 0.636477 0.430935 -2.737368
v 0.563792 0.252351 -2.600757
v 0.527747 0.226187 -2.637968
v 0.605536 0.417298 -2.784171
v 0.652273 0.664830 -2.767057
v 0.636477 0.430935 -2.737368
v 0.605536 0.417298 -2.784171
v 0.622441 0.667600 -2.815944
v 0.606165 0.879777 -2.680397
v 0.652273 0.664830 -2.767057
v 0.622441 0.667600 -2.815944
v 0.573095 0.897624 -2.723199
v 0.512792 1.007531 -2.504902
v 0.606165 0.879777 -2.680397
v 0.573095 0.897624 -2.723199
v 0.473165 1.034339 -2.535382
v 0.401798 1.007531 -2.296291
v 0.512792 1.007531 -2.504902
v 0.473165 1.034339 -2.535382
v 0.354379 1.034339 -2.312124
v 0.308425 0.879777 -2.120797
v 0.401798 1.007531 -2.296291
v 0.354379 1.034339 -2.312124
v 0.254449 0.897624 -2.124308
v 0.262316 0.664831 -2.034137
v 0.308425 0.879777 -2.120797
v 0.254449 0.897624 -2.124308
v 0.205103 0.667600 -2.031563
v 0.278112 0.430935 -2.063825
v 0.262316 0.664831 -2.034137
v 0.205103 0.667600 -2.031563
v 0.222008 0.417298 -2.063336
v 0.350797 0.252351 -2.200436
v 0.278112 0.430935 -2.063825
v 0.222008 0.417298 -2.063336
v 0.299797 0.226187 -2.209539
v 0.457295 0.185777 -2.400597
v 0.350797 0.252351 -2.200436
v 0.299797 0.226187 -2.209539
v 0.413772 0.154943 -2.423753
v 0.563792 0.252351 -2.600757
v 0.457295 0.185777 -2.400597
v 0.413772 0.154943 -2.423753
v 0.527747 0.226187 -2.637968
vn 0.9904 -0.1201 -0.0689
vn 0.9414 0.3364 0.0231
vn 0.7433 0.5395 0.3955
vn 0.5452 0.3364 0.7679
vn 0.4962 -0.1201 0.8599
vn 0.6333 -0.4861 0.6021
vn 0.8533 -0.4861 0.1888
vn 0.9767 -0.0634 0.2049
vn 0.9509 0.1777 0.2535
vn 0.8462 0.2851 0.4502
vn 0.7415 0.1777 0.6470
vn 0.7156 -0.0634 0.6956
vn 0.7881 -0.2568 0.5594
vn 0.9043 -0.2568 0.3410
vn 0.4766 0.4035 0.7811
vn 0.4116 0.0874 0.9072
vn 0.4375 -0.2539 0.8626
vn 0.5453 -0.5126 0.6633
vn 0.7005 -0.6086 0.3727
vn 0.8547 -0.5126 0.0816
vn 0.9599 -0.2539 -0.1191
vn 0.9823 0.0874 -0.1656
vn 0.9140 0.4035 -0.0412
vn 0.7761 0.5926 0.2158
vn 0.6126 0.5926 0.5230
vn 0.8828 -0.0000 0.4697
vn 0.7550 -0.5636 -0.3351
vn 0.7551 -0.5636 -0.3350
vn 0.8440 -0.1233 -0.5220
vn 0.8046 0.3623 -0.4705
vn 0.6472 0.7376 -0.1925
vn 0.6472 0.7376 -0.1926
vn 0.4217 0.8785 0.2244
vn 0.2019 0.7376 0.6444
vn 0.2020 0.7376 0.6444
vn 0.0593 0.3623 0.9302
vn 0.0594 0.3623 0.9302
vn 0.0386 -0.1233 0.9916
vn 0.1441 -0.5636 0.8134
vn 0.1440 -0.5636 0.8134
vn 0.3409 -0.8227 0.4550
vn 0.3408 -0.8227 0.4549
vn 0.5677 -0.8227 0.0284
vn 0.5678 -0.8227 0.0285
vn 0.6523 -0.2163 -0.7264
vn 0.5642 0.6061 -0.5607
vn 0.2072 0.9721 0.1102
vn -0.1498 0.6061 0.7812
vn -0.2380 -0.2163 0.9469
vn 0.0091 -0.8758 0.4826
vn 0.4053 -0.8758 -0.2621
vn 0.9311 -0.1653 -0.3250
vn 0.8638 0.4632 -0.1984
vn 0.5909 0.7429 0.3144
vn 0.3181 0.4632 0.8272
vn 0.2507 -0.1653 0.9538
vn 0.4395 -0.6694 0.5990
vn 0.7423 -0.6694 0.0298
vn 0.3408 -0.8227 0.4550
vt 0.608763 0.591262
vt 0.635492 0.474642
vt 0.500539 0.505316
vt 0.560599 0.381120
vt 0.440479 0.381120
vt 0.365585 0.474642
vt 0.392315 0.591262
vt 0.500539 0.643162
vt 0.563178 0.567271
vt 0.578642 0.499802
vt 0.500566 0.517548
vt 0.535313 0.445696
vt 0.465819 0.445696
vt 0.422490 0.499802
vt 0.437954 0.567271
vt 0.500566 0.597297
vt 0.641884 0.552145
vt 0.584329 0.618291
vt 0.715123 0.818180
vt 0.861947 0.649444
vt 0.654392 0.465513
vt 0.893854 0.428446
vt 0.617882 0.385900
vt 0.800716 0.225352
vt 0.543945 0.338581
vt 0.612103 0.104643
vt 0.456055 0.338581
vt 0.387897 0.104643
vt 0.382118 0.385900
vt 0.199284 0.225352
vt 0.345608 0.465513
vt 0.106146 0.428446
vt 0.358115 0.552145
vt 0.138053 0.649443
vt 0.415671 0.618291
vt 0.284877 0.818180
vt 0.500000 0.642948
vt 0.500000 0.881082
vt 0.737317 0.855938
vt 0.899288 0.669793
vt 0.934487 0.425996
vt 0.831740 0.201950
vt 0.623668 0.068788
vt 0.376332 0.068788
vt 0.168260 0.201950
vt 0.065513 0.425996
vt 0.100712 0.669793
vt 0.262683 0.855938
vt 0.500000 0.925330
vt 0.753980 0.883210
vt 0.927323 0.684009
vt 0.964994 0.423110
vt 0.855033 0.183348
vt 0.632351 0.040845
vt 0.367649 0.040845
vt 0.144967 0.183348
vt 0.035006 0.423110
vt 0.072677 0.684009
vt 0.246020 0.883210
vt 0.500000 0.957470
vt 0.625505 0.604558
vt 0.656370 0.469897
vt 0.569890 0.361907
vt 0.431188 0.361907
vt 0.344708 0.469897
vt 0.375572 0.604558
vt 0.500539 0.664487
vt 0.625790 0.616994
vt 0.656718 0.482056
vt 0.635797 0.486811
vt 0.609013 0.603671
vt 0.570060 0.373844
vt 0.560750 0.393097
vt 0.431072 0.373844
vt 0.440382 0.393097
vt 0.344414 0.482056
vt 0.365335 0.486811
vt 0.375342 0.616994
vt 0.392119 0.603671
vt 0.500566 0.677047
vt 0.500566 0.655678
vt 0.649052 0.566361
vt 0.588589 0.635848
vt 0.725991 0.845835
vt 0.880231 0.668575
vt 0.662192 0.475352
vt 0.913751 0.436413
vt 0.623837 0.391717
vt 0.815908 0.223059
vt 0.546165 0.342008
vt 0.617766 0.096252
vt 0.453835 0.342008
vt 0.382234 0.096252
vt 0.376163 0.391717
vt 0.184092 0.223059
vt 0.337808 0.475352
vt 0.086249 0.436413
vt 0.350948 0.566361
vt 0.119769 0.668575
vt 0.411411 0.635848
vt 0.274009 0.845835
vt 0.500000 0.661751
vt 0.500000 0.911916
vt 0.749306 0.885501
vt 0.919459 0.689953
vt 0.956437 0.433840
vt 0.848499 0.198475
vt 0.629915 0.058586
vt 0.370085 0.058585
vt 0.151501 0.198475
vt 0.043563 0.433839
vt 0.080541 0.689953
vt 0.250694 0.885501
vt 0.500000 0.958399
vt 0.766810 0.914151
vt 0.948910 0.704886
vt 0.988485 0.430807
vt 0.872968 0.178933
vt 0.639037 0.029231
vt 0.360963 0.029231
vt 0.127032 0.178933
vt 0.011516 0.430807
vt 0.051090 0.704886
vt 0.233190 0.914150
vt 0.500000 0.992162
s 0
usemtl lambert2
f 442/202/94 443/203/94 444/204/94
f 445/203/95 446/205/95 447/204/95
f 448/205/96 449/206/96 450/204/96
f 451/206/97 452/207/97 453/204/97
f 454/207/98 455/208/98 456/204/98
f 457/208/99 458/209/99 459/204/99
f 460/209/100 461/202/100 462/204/100
f 463/210/101 464/211/101 465/212/101
f 466/211/102 467/213/102 468/212/102
f 469/213/103 470/214/103 471/212/103
f 472/214/104 473/215/104 474/212/104
f 475/215/105 476/216/105 477/212/105
f 478/216/106 479/217/106 480/212/106
f 481/217/107 482/210/107 483/212/107
f 484/218/108 485/219/108 486/220/108
s 1
f 484/218/108 486/220/108 487/221/108
s 0
f 488/222/109 489/218/109 490/221/109
f 488/222/109 490/221/109 491/223/109
f 492/224/110 493/222/110 494/223/110
f 492/224/110 494/223/110 495/225/110
s 1
f 496/226/111 497/224/111 498/225/111
s 0
f 496/226/111 498/225/111 499/227/111
f 500/228/112 501/226/112 502/227/112
f 500/228/112 502/227/112 503/229/112
f 504/230/113 505/228/113 506/229/113
f 504/230/113 506/229/113 507/231/113
f 508/232/114 509/230/114 510/231/114
f 508/232/114 510/231/114 511/233/114
s 1
f 512/234/115 513/232/115 514/233/115
s 0
f 512/234/115 514/233/115 515/235/115
f 516/236/116 517/234/116 518/235/116
f 516/236/116 518/235/116 519/237/116
f 520/238/117 521/236/117 522/237/117
f 520/238/117 522/237/117 523/239/117
f 524/219/118 525/238/118 526/239/118
f 524/219/118 526/239/118 527/220/118
f 528/221/119 529/220/119 530/240/119
f 528/221/119 530/240/119 531/241/119
f 532/223/119 533/221/119 534/241/119
f 532/223/119 534/241/119 535/242/119
f 536/225/119 532/223/119 535/242/119
f 536/225/119 535/242/119 537/243/119
f 538/227/119 539/225/119 540/243/119
f 538/227/119 540/243/119 541/244/119
f 542/229/119 543/227/119 544/244/119
f 542/229/119 544/244/119 545/245/119
f 546/231/119 547/229/119 548/245/119
f 546/231/119 548/245/119 549/246/119
f 550/233/119 546/231/119 549/246/119
f 550/233/119 549/246/119 551/247/119
f 552/235/119 553/233/119 554/247/119
f 552/235/119 554/247/119 555/248/119
f 556/237/119 557/235/119 558/248/119
f 556/237/119 558/248/119 559/249/119
f 560/239/119 561/237/119 562/249/119
f 560/239/119 562/249/119 563/250/119
f 564/220/119 565/239/119 566/250/119
f 564/220/119 566/250/119 567/240/119
f 568/241/120 569/240/120 570/251/120
s 1
f 568/241/121 570/251/121 571/252/121
s 0
f 572/242/122 573/241/122 574/252/122
f 572/242/122 574/252/122 575/253/122
s 1
f 576/243/123 577/242/123 578/253/123
f 576/243/123 578/253/123 579/254/123
s 0
f 580/244/124 581/243/124 582/254/124
f 580/244/125 582/254/125 583/255/125
f 584/245/126 585/244/126 586/255/126
f 584/245/126 586/255/126 587/256/126
f 588/246/127 589/245/127 590/256/127
f 588/246/128 590/256/128 591/257/128
f 592/247/129 593/246/129 594/257/129
f 592/247/130 594/257/130 595/258/130
f 596/248/131 597/247/131 598/258/131
f 596/248/131 598/258/131 599/259/131
f 600/249/132 601/248/132 602/259/132
f 600/249/133 602/259/133 603/260/133
f 604/250/134 605/249/134 606/260/134
f 604/250/135 606/260/135 607/261/135
f 608/240/136 609/250/136 610/261/136
s 1
f 608/240/137 610/261/137 611/251/137
s 0
f 612/262/138 613/263/138 614/203/138
f 612/262/138 614/203/138 615/202/138
f 616/263/139 617/264/139 618/205/139
f 616/263/139 618/205/139 619/203/139
f 620/264/140 621/265/140 622/206/140
f 620/264/140 622/206/140 623/205/140
f 624/265/141 625/266/141 626/207/141
f 624/265/141 626/207/141 627/206/141
s 1
f 628/266/142 629/267/142 630/208/142
s 0
f 628/266/142 630/208/142 631/207/142
s 1
f 632/267/143 633/268/143 634/209/143
s 0
f 632/267/143 634/209/143 635/208/143
f 636/268/144 637/262/144 638/202/144
f 636/268/144 638/202/144 639/209/144
f 640/269/138 641/270/138 642/271/138
f 640/269/138 642/271/138 643/272/138
f 644/270/139 645/273/139 646/274/139
f 644/270/139 646/274/139 647/271/139
f 648/273/140 649/275/140 650/276/140
f 648/273/140 650/276/140 651/274/140
f 652/275/141 653/277/141 654/278/141
f 652/275/141 654/278/141 655/276/141
f 656/277/142 657/279/142 658/280/142
f 656/277/142 658/280/142 659/278/142
f 660/279/143 661/281/143 662/282/143
f 660/279/143 662/282/143 663/280/143
f 664/281/144 665/269/144 666/272/144
f 664/281/144 666/272/144 667/282/144
f 668/272/145 669/271/145 670/211/145
f 668/272/145 670/211/145 671/210/145
f 672/271/146 673/274/146 674/213/146
f 672/271/146 674/213/146 675/211/146
f 676/274/147 677/276/147 678/214/147
f 676/274/147 678/214/147 679/213/147
f 680/276/148 681/278/148 682/215/148
f 680/276/148 682/215/148 683/214/148
f 684/278/149 685/280/149 686/216/149
f 684/278/149 686/216/149 687/215/149
f 688/280/150 689/282/150 690/217/150
f 688/280/150 690/217/150 691/216/150
f 692/282/151 693/272/151 694/210/151
f 692/282/151 694/210/151 695/217/151
s 1
f 696/283/108 697/284/108 698/285/108
s 0
f 696/283/108 698/285/108 699/286/108
f 700/287/109 701/283/109 702/286/109
f 700/287/109 702/286/109 703/288/109
f 704/289/110 705/287/110 706/288/110
f 704/289/110 706/288/110 707/290/110
s 1
f 708/291/111 709/289/111 710/290/111
s 0
f 708/291/111 710/290/111 711/292/111
f 712/293/112 713/291/112 714/292/112
f 712/293/112 714/292/112 715/294/112
f 716/295/113 717/293/113 718/294/113
f 716/295/113 718/294/113 719/296/113
s 1
f 720/297/114 721/295/114 722/296/114
s 0
f 720/297/114 722/296/114 723/298/114
f 724/299/115 725/297/115 726/298/115
f 724/299/115 726/298/115 727/300/115
f 728/301/116 729/299/116 730/300/116
f 728/301/116 730/300/116 731/302/116
f 732/303/117 733/301/117 734/302/117
f 732/303/117 734/302/117 735/304/117
f 736/284/118 737/303/118 738/304/118
f 736/284/118 738/304/118 739/285/118
f 740/286/119 741/285/119 742/305/119
f 740/286/119 742/305/119 743/306/119
f 744/288/119 745/286/119 746/306/119
f 744/288/119 746/306/119 747/307/119
f 748/290/119 749/288/119 750/307/119
f 748/290/119 750/307/119 751/308/119
f 752/292/119 753/290/119 754/308/119
f 752/292/119 754/308/119 755/309/119
f 756/294/119 757/292/119 758/309/119
f 756/294/119 758/309/119 759/310/119
f 760/296/119 761/294/119 762/310/119
f 760/296/119 762/310/119 763/311/119
f 764/298/119 765/296/119 766/311/119
f 764/298/119 766/311/119 767/312/119
f 768/300/119 769/298/119 770/312/119
f 768/300/119 770/312/119 771/313/119
f 772/302/119 773/300/119 774/313/119
f 772/302/119 774/313/119 775/314/119
f 776/304/119 777/302/119 778/314/119
f 776/304/119 778/314/119 779/315/119
f 780/285/119 781/304/119 782/315/119
f 780/285/119 782/315/119 783/305/119
f 784/306/120 785/305/120 786/316/120
f 784/306/121 786/316/121 787/317/121
f 788/307/122 789/306/122 790/317/122
f 788/307/122 790/317/122 791/318/122
f 792/308/123 793/307/123 794/318/123
f 792/308/123 794/318/123 795/319/123
f 796/309/124 797/308/124 798/319/124
f 796/309/125 798/319/125 799/320/125
f 800/310/126 801/309/126 802/320/126
f 800/310/126 802/320/126 803/321/126
f 804/311/127 805/310/127 806/321/127
f 804/311/128 806/321/128 807/322/128
s 1
f 808/312/129 809/311/129 810/322/129
s 0
f 808/312/130 810/322/130 811/323/130
f 812/313/131 813/312/131 814/323/131
f 812/313/131 814/323/131 815/324/131
f 816/314/132 817/313/132 818/324/132
f 816/314/133 818/324/133 819/325/133
s 1
f 820/315/152 821/314/152 822/325/152
s 0
f 820/315/135 822/325/135 823/326/135
f 824/305/136 825/315/136 826/326/136
f 824/305/137 826/326/137 827/316/137
o polySurface13_lambert3_0
v 0.207727 1.662528 -2.005031
v 0.183589 1.611139 -1.959664
v 0.642265 1.662528 -2.821740
v 0.330905 1.518464 -2.236542
v 0.309504 1.418701 -2.196320
v 0.301701 1.382324 -2.181653
v 0.183589 0.184079 -1.959664
v 0.225613 0.671795 -2.038648
v 0.230643 0.597318 -2.048101
v 0.241782 0.432387 -2.069037
v 0.258128 0.823364 -2.099760
v 0.309032 1.273766 -2.195432
v 0.272810 0.891807 -2.127354
v 0.311705 1.234182 -2.200457
v 0.338657 0.981893 -2.251112
v 0.345441 1.151296 -2.263862
v 0.357743 1.121073 -2.286983
v 0.368389 1.022572 -2.306993
v 0.407171 1.090174 -2.379884
v 0.482003 1.022572 -2.520529
v 0.425196 1.078907 -2.413761
v 0.443220 1.090174 -2.447638
v 0.492649 1.121073 -2.540538
v 0.264927 0.375522 -2.112537
v 0.316184 0.249594 -2.208874
v 0.207727 0.132689 -2.005031
v 0.511735 0.981893 -2.576411
v 0.504951 1.151296 -2.563660
v 0.577581 0.891807 -2.700168
v 0.538686 1.234182 -2.627065
v 0.346708 1.540085 -2.266244
v 0.390045 1.599379 -2.347696
v 0.460346 1.599379 -2.479826
v 0.503683 1.540085 -2.561278
v 0.519487 1.518464 -2.590980
v 0.540887 1.418701 -2.631202
v 0.548691 1.382324 -2.645869
v 0.649432 1.658651 -2.835211
v 0.666403 1.611139 -2.867108
v 0.649411 0.136124 -2.835172
v 0.666403 0.184079 -2.867108
v 0.642265 0.132689 -2.821740
v 0.350095 0.228396 -2.272610
v 0.541360 1.273766 -2.632090
v 0.592263 0.823364 -2.727762
v 0.624778 0.671795 -2.788874
v 0.619748 0.597318 -2.779421
v 0.608609 0.432387 -2.758485
v 0.585465 0.375522 -2.714984
v 0.534208 0.249594 -2.618648
v 0.500296 0.228396 -2.554912
v 0.425196 0.181452 -2.413761
v 0.649432 1.658651 -2.835211
v 0.666403 1.611139 -2.867108
v 0.642265 1.662528 -2.821740
v -0.203682 0.132689 -3.271834
v 0.642265 0.132689 -2.821740
v 0.207727 0.132689 -2.005031
v -0.638220 0.132689 -2.455126
v -0.179544 1.611139 -3.317202
v 0.666403 1.611139 -2.867108
v 0.666403 0.184079 -2.867108
v -0.179544 0.184079 -3.317202
v -0.662358 0.184079 -2.409758
v 0.183589 0.184079 -1.959664
v 0.183589 1.611139 -1.959664
v -0.662358 1.611139 -2.409758
v -0.638220 1.662528 -2.455126
v 0.207727 1.662528 -2.005031
v 0.642265 1.662528 -2.821740
v -0.203682 1.662528 -3.271834
v -0.203682 0.132689 -3.271834
v -0.179544 0.184079 -3.317202
v 0.666403 0.184079 -2.867108
v 0.642265 0.132689 -2.821740
v 0.207727 0.132689 -2.005031
v 0.183589 0.184079 -1.959664
v -0.662358 0.184079 -2.409758
v -0.638220 0.132689 -2.455126
v -0.179544 1.611139 -3.317202
v -0.203682 1.662528 -3.271834
v 0.642265 1.662528 -2.821740
v 0.666403 1.611139 -2.867108
v -0.638220 1.662528 -2.455126
v -0.662358 1.611139 -2.409758
v 0.183589 1.611139 -1.959664
v 0.207727 1.662528 -2.005031
v -0.179544 0.184079 -3.317202
v -0.203682 0.132689 -3.271834
v -0.638220 0.132689 -2.455126
v -0.662358 0.184079 -2.409758
v -0.662358 1.611139 -2.409758
v -0.638220 1.662528 -2.455126
v -0.203682 1.662528 -3.271834
v -0.179544 1.611139 -3.317202
vn 0.8828 -0.0000 0.4697
vn 0.8828 -0.0096 0.4697
vn -0.8828 -0.0000 -0.4697
vn -0.0000 -1.0000 -0.0000
vn 0.4697 -0.0000 -0.8828
vn -0.4697 -0.0000 0.8828
vn -0.0000 1.0000 -0.0000
vn 0.3321 -0.7071 -0.6242
vn -0.3321 -0.7071 0.6242
vn 0.3321 0.7071 -0.6242
vn -0.3321 0.7071 0.6242
vt 0.101527 0.074550
vt 0.088702 0.098356
vt 0.332407 0.077924
vt 0.166974 0.121484
vt 0.155604 0.146382
vt 0.151457 0.155461
vt 0.088702 0.454506
vt 0.111031 0.332787
vt 0.113703 0.351374
vt 0.119622 0.392535
vt 0.128307 0.294960
vt 0.155353 0.182553
vt 0.136107 0.277878
vt 0.156773 0.192432
vt 0.171093 0.255396
vt 0.174698 0.213118
vt 0.181234 0.220661
vt 0.186890 0.245244
vt 0.207496 0.228372
vt 0.247256 0.245244
vt 0.217073 0.231184
vt 0.226650 0.228372
vt 0.252913 0.220661
vt 0.131919 0.406727
vt 0.159153 0.438155
vt 0.101527 0.467331
vt 0.263054 0.255396
vt 0.259449 0.213118
vt 0.298039 0.277878
vt 0.277373 0.192432
vt 0.175371 0.116088
vt 0.198397 0.101290
vt 0.235749 0.101290
vt 0.258776 0.116089
vt 0.267172 0.121484
vt 0.278543 0.146382
vt 0.282689 0.155461
vt 0.336215 0.078201
vt 0.345232 0.112689
vt 0.336204 0.466473
vt 0.345232 0.454506
vt 0.332407 0.467331
vt 0.177170 0.443445
vt 0.278794 0.182553
vt 0.305840 0.294960
vt 0.323116 0.332787
vt 0.320444 0.351374
vt 0.314525 0.392535
vt 0.302228 0.406727
vt 0.274994 0.438155
vt 0.256976 0.443445
vt 0.217073 0.455161
vt 0.052123 0.479650
vt 0.040528 0.517529
vt 0.057020 0.479097
vt 0.429494 0.486703
vt 0.737022 0.486703
vt 0.737022 0.189804
vt 0.429494 0.189804
vt 0.513278 0.694475
vt 0.820806 0.686869
vt 0.820806 0.214547
vt 0.513278 0.214547
vt 0.539834 0.739176
vt 0.847361 0.739176
vt 0.847361 0.281188
vt 0.539834 0.281188
vt 0.836051 0.159900
vt 0.431748 0.150841
vt 0.432590 0.389553
vt 0.836893 0.397244
vt 0.429494 0.503195
vt 0.737022 0.503195
vt 0.737022 0.173312
vt 0.429494 0.173312
vt 0.840432 0.719197
vt 0.436136 0.713038
vt 0.839279 0.790618
vt 0.434982 0.792065
vt 0.810722 0.694352
vt 0.497331 0.710844
vt 0.794229 0.710844
vt 0.480839 0.694352
vt 0.810722 0.236363
vt 0.480839 0.258303
vt 0.794229 0.216757
vt 0.497331 0.219871
s 0
usemtl lambert3
f 828/327/153 829/328/153 830/329/153
f 831/330/153 829/328/153 832/331/153
f 832/331/153 829/328/153 833/332/153
f 829/328/153 834/333/153 835/334/153
f 835/334/153 834/333/153 836/335/153
f 836/335/153 834/333/153 837/336/153
f 835/334/153 838/337/153 829/328/153
f 829/328/153 838/337/153 833/332/153
f 833/332/153 838/337/153 839/338/153
f 838/337/153 840/339/153 839/338/153
f 839/338/153 840/339/153 841/340/153
f 840/339/153 842/341/153 841/340/153
f 841/340/153 842/341/153 843/342/153
f 843/342/153 842/341/153 844/343/153
f 842/341/153 845/344/153 844/343/153
f 844/343/153 845/344/153 846/345/153
f 845/344/153 847/346/153 846/345/153
f 846/345/153 847/346/153 848/347/153
f 848/347/153 847/346/153 849/348/153
f 849/348/153 847/346/153 850/349/153
f 837/336/153 834/333/153 851/350/153
f 851/350/153 834/333/153 852/351/153
f 834/333/153 853/352/153 852/351/153
f 847/346/153 854/353/153 850/349/153
f 850/349/153 854/353/153 855/354/153
f 854/353/153 856/355/153 855/354/153
f 855/354/153 856/355/153 857/356/153
f 831/330/153 858/357/153 829/328/153
f 858/357/153 859/358/153 829/328/153
f 829/328/153 859/358/153 830/329/153
f 859/358/153 860/359/153 830/329/153
f 860/359/153 861/360/153 830/329/153
f 861/360/153 862/361/153 830/329/153
f 862/361/153 863/362/153 830/329/153
f 863/362/153 864/363/153 830/329/153
f 830/329/153 864/363/153 865/364/153
f 865/364/153 864/363/153 866/365/153
f 867/366/153 868/367/153 869/368/153
f 868/367/153 866/365/153 869/368/153
f 852/351/153 853/352/153 870/369/153
f 864/363/153 871/370/153 866/365/153
f 857/356/153 856/355/153 871/370/153
f 871/370/153 856/355/153 866/365/153
s 1
f 872/371/154 873/372/153 856/355/153
s 0
f 856/355/153 873/372/153 866/365/153
f 866/365/153 873/372/153 869/368/153
f 873/372/153 874/373/153 869/368/153
f 874/373/153 875/374/153 869/368/153
f 875/374/153 876/375/153 869/368/153
f 876/375/153 877/376/153 869/368/153
f 877/376/153 878/377/153 869/368/153
f 870/369/153 853/352/153 879/378/153
f 853/352/153 869/368/153 879/378/153
f 878/377/153 879/378/153 869/368/153
f 880/379/155 881/380/155 882/381/155
f 883/382/156 884/383/156 885/384/156
f 883/382/156 885/384/156 886/385/156
f 887/386/157 888/387/157 889/388/157
f 887/386/157 889/388/157 890/389/157
f 891/390/158 892/391/158 893/392/158
f 891/390/158 893/392/158 894/393/158
f 895/394/159 896/395/159 897/396/159
f 895/394/159 897/396/159 898/397/159
f 899/382/160 900/398/160 901/399/160
f 899/382/160 901/399/160 902/383/160
f 903/384/161 904/400/161 905/401/161
f 903/384/161 905/401/161 906/385/161
f 907/402/162 908/397/162 909/396/162
f 907/402/162 909/396/162 910/403/162
f 911/394/163 912/404/163 913/405/163
f 911/394/163 913/405/163 914/395/163
f 918/406/155 916/407/155 917/408/155
f 916/407/155 918/406/155 915/409/155
f 915/409/155 918/406/155 919/410/155
f 915/409/155 919/410/155 922/411/155
f 922/411/155 919/410/155 920/412/155
f 922/411/155 920/412/155 921/413/155
